<svg width="947" height="826" viewBox="0 0 947 826" fill="none" xmlns="http://www.w3.org/2000/svg">
<g opacity="0.2">
<g opacity="0.2">
<g opacity="0.2">
<path opacity="0.2" d="M311.772 538.327H202.721V734.441H311.772V538.327Z" stroke="#F1B104" stroke-width="3" stroke-linecap="round" stroke-linejoin="round"/>
<path opacity="0.2" d="M299.946 638.034C302.745 638.034 305.014 635.766 305.014 632.968C305.014 630.17 302.745 627.901 299.946 627.901C297.146 627.901 294.877 630.17 294.877 632.968C294.877 635.766 297.146 638.034 299.946 638.034Z" stroke="#F1B104" stroke-width="3" stroke-linecap="round" stroke-linejoin="round"/>
<path opacity="0.2" d="M330.356 638.034C333.155 638.034 335.424 635.766 335.424 632.968C335.424 630.17 333.155 627.901 330.356 627.901C327.557 627.901 325.287 630.17 325.287 632.968C325.287 635.766 327.557 638.034 330.356 638.034Z" stroke="#F1B104" stroke-width="3" stroke-linecap="round" stroke-linejoin="round"/>
<path opacity="0.2" d="M429.546 538.327H320.495V734.441H429.546V538.327Z" stroke="#F1B104" stroke-width="3" stroke-linecap="round" stroke-linejoin="round"/>
<path opacity="0.2" d="M794.037 538.327H684.986V734.441H794.037V538.327Z" stroke="#F1B104" stroke-width="3" stroke-linecap="round" stroke-linejoin="round"/>
<path opacity="0.2" d="M696.565 638.034C699.364 638.034 701.633 635.766 701.633 632.968C701.633 630.17 699.364 627.901 696.565 627.901C693.766 627.901 691.496 630.17 691.496 632.968C691.496 635.766 693.766 638.034 696.565 638.034Z" stroke="#F1B104" stroke-width="3" stroke-linecap="round" stroke-linejoin="round"/>
<g opacity="0.2">
<path opacity="0.2" d="M653.24 538.016H487.404V578.737H653.24V538.016Z" stroke="#F1B104" stroke-width="3" stroke-linecap="round" stroke-linejoin="round"/>
<path opacity="0.2" d="M653.24 585.633H487.404V734.441H653.24V585.633Z" stroke="#F1B104" stroke-width="3" stroke-linecap="round" stroke-linejoin="round"/>
<path opacity="0.2" d="M637.158 621.994H510.251V716.317H637.158V621.994Z" fill="#FFE6AA"/>
<path opacity="0.2" d="M633.779 618.617H506.872V712.939H633.779V618.617Z" stroke="#F1B104" stroke-width="3" stroke-linecap="round" stroke-linejoin="round"/>
<path opacity="0.2" d="M631.355 597.2H508.788C508.155 597.2 507.643 597.713 507.643 598.345V603.065C507.643 603.697 508.155 604.209 508.788 604.209H631.355C631.987 604.209 632.5 603.697 632.5 603.065V598.345C632.5 597.713 631.987 597.2 631.355 597.2Z" stroke="#F1B104" stroke-width="3" stroke-linecap="round" stroke-linejoin="round"/>
<path opacity="0.2" d="M568.032 618.617L507.416 679.207" stroke="#F1B104" stroke-width="3" stroke-linecap="round" stroke-linejoin="round"/>
<path opacity="0.2" d="M581.816 618.617L506.872 693.529" stroke="#F1B104" stroke-width="3" stroke-linecap="round" stroke-linejoin="round"/>
<path opacity="0.2" d="M609.18 618.617L514.817 712.939" stroke="#F1B104" stroke-width="3" stroke-linecap="round" stroke-linejoin="round"/>
<path opacity="0.2" d="M625.615 565.99C630.124 565.99 633.779 562.336 633.779 557.829C633.779 553.322 630.124 549.668 625.615 549.668C621.106 549.668 617.45 553.322 617.45 557.829C617.45 562.336 621.106 565.99 625.615 565.99Z" stroke="#F1B104" stroke-width="3" stroke-linecap="round" stroke-linejoin="round"/>
<path opacity="0.2" d="M625.615 552.869V549.668" stroke="#F1B104" stroke-width="3" stroke-linecap="round" stroke-linejoin="round"/>
<path opacity="0.2" d="M625.615 565.99V562.789" stroke="#F1B104" stroke-width="3" stroke-linecap="round" stroke-linejoin="round"/>
<path opacity="0.2" d="M620.652 557.49H617.45" stroke="#F1B104" stroke-width="3" stroke-linecap="round" stroke-linejoin="round"/>
<path opacity="0.2" d="M633.779 557.49H630.577" stroke="#F1B104" stroke-width="3" stroke-linecap="round" stroke-linejoin="round"/>
<path opacity="0.2" d="M625.615 554.967V557.829H628.145" stroke="#F1B104" stroke-width="3" stroke-linecap="round" stroke-linejoin="round"/>
<path opacity="0.2" d="M547.207 564.704C549.713 564.704 551.745 562.673 551.745 560.168C551.745 557.663 549.713 555.632 547.207 555.632C544.701 555.632 542.669 557.663 542.669 560.168C542.669 562.673 544.701 564.704 547.207 564.704Z" fill="white"/>
<path opacity="0.2" d="M564.434 564.704C566.94 564.704 568.972 562.673 568.972 560.168C568.972 557.663 566.94 555.632 564.434 555.632C561.927 555.632 559.896 557.663 559.896 560.168C559.896 562.673 561.927 564.704 564.434 564.704Z" fill="white"/>
<path opacity="0.2" d="M581.668 564.704C584.174 564.704 586.206 562.673 586.206 560.168C586.206 557.663 584.174 555.632 581.668 555.632C579.161 555.632 577.129 557.663 577.129 560.168C577.129 562.673 579.161 564.704 581.668 564.704Z" fill="white"/>
<path opacity="0.2" d="M598.894 564.704C601.401 564.704 603.433 562.673 603.433 560.168C603.433 557.663 601.401 555.632 598.894 555.632C596.388 555.632 594.356 557.663 594.356 560.168C594.356 562.673 596.388 564.704 598.894 564.704Z" fill="white"/>
<path opacity="0.2" d="M545.517 563.355C548.024 563.355 550.056 561.324 550.056 558.818C550.056 556.313 548.024 554.282 545.517 554.282C543.011 554.282 540.979 556.313 540.979 558.818C540.979 561.324 543.011 563.355 545.517 563.355Z" stroke="#F1B104" stroke-width="3" stroke-linecap="round" stroke-linejoin="round"/>
<path opacity="0.2" d="M562.744 563.355C565.251 563.355 567.282 561.324 567.282 558.818C567.282 556.313 565.251 554.282 562.744 554.282C560.238 554.282 558.206 556.313 558.206 558.818C558.206 561.324 560.238 563.355 562.744 563.355Z" stroke="#F1B104" stroke-width="3" stroke-linecap="round" stroke-linejoin="round"/>
<path opacity="0.2" d="M579.978 563.355C582.485 563.355 584.516 561.324 584.516 558.818C584.516 556.313 582.485 554.282 579.978 554.282C577.472 554.282 575.44 556.313 575.44 558.818C575.44 561.324 577.472 563.355 579.978 563.355Z" stroke="#F1B104" stroke-width="3" stroke-linecap="round" stroke-linejoin="round"/>
<path opacity="0.2" d="M597.205 563.355C599.711 563.355 601.743 561.324 601.743 558.818C601.743 556.313 599.711 554.282 597.205 554.282C594.699 554.282 592.667 556.313 592.667 558.818C592.667 561.324 594.699 563.355 597.205 563.355Z" stroke="#F1B104" stroke-width="3" stroke-linecap="round" stroke-linejoin="round"/>
</g>
</g>
<g opacity="0.2">
<path opacity="0.2" d="M539.898 414.533C540.574 413.89 541.434 413.472 542.358 413.339L557.464 411.41L560.998 408.181L579.787 428.51L559.91 446.881C553.173 453.099 543.489 453.947 538.194 448.612C535.402 445.786 534.356 441.836 534.914 437.801C535.58 433.532 537.7 429.623 540.916 426.736L544.111 423.79C544.952 423.012 544.881 421.783 543.976 421.437L539.834 419.833C539.565 419.708 539.325 419.531 539.127 419.31C538.003 418.144 538.293 416.017 539.898 414.533Z" stroke="#F1B104" stroke-width="3" stroke-linecap="round" stroke-linejoin="round"/>
<path opacity="0.2" d="M560.85 408.052L579.849 428.611C580.341 429.144 581.173 429.177 581.707 428.684L582.548 427.908C583.081 427.415 583.114 426.584 582.621 426.05L563.622 405.492C563.13 404.958 562.298 404.925 561.764 405.418L560.923 406.195C560.39 406.687 560.357 407.519 560.85 408.052Z" fill="#FFE6AA" stroke="#F1B104" stroke-width="3" stroke-linecap="round" stroke-linejoin="round"/>
<path opacity="0.2" d="M564.801 399.638C564.745 400.811 562.454 404.401 562.454 404.401C562.454 404.401 560.489 400.628 560.546 399.455C560.571 398.893 560.819 398.363 561.234 397.984C561.65 397.604 562.199 397.405 562.762 397.43C563.324 397.456 563.854 397.703 564.234 398.119C564.613 398.534 564.812 399.083 564.787 399.646L564.801 399.638Z" stroke="#F1B104" stroke-width="3" stroke-linecap="round" stroke-linejoin="round"/>
<path opacity="0.2" d="M537.742 397.059H595.897" stroke="#F1B104" stroke-width="3" stroke-linecap="round" stroke-linejoin="round"/>
</g>
<g opacity="0.2">
<path opacity="0.2" d="M649.712 444.726H645.061C643.389 444.737 641.78 444.085 640.587 442.913C639.395 441.741 638.716 440.144 638.699 438.472V437.116C638.699 436.301 638.86 435.494 639.173 434.742C639.319 434.393 639.499 434.059 639.71 433.745C640.023 432.99 640.184 432.181 640.184 431.364V430.481C640.169 428.808 639.49 427.209 638.298 426.036C637.105 424.862 635.495 424.209 633.822 424.221H632.917C631.243 424.209 629.633 424.862 628.441 426.036C627.248 427.209 626.57 428.808 626.555 430.481V431.364C626.555 432.181 626.716 432.99 627.028 433.745C627.239 434.059 627.419 434.393 627.566 434.742C627.878 435.494 628.039 436.301 628.039 437.116V438.472C628.039 441.921 625.212 445.736 621.677 445.736H617.019C612.622 445.736 609.052 448.23 609.052 452.555V505.916C609.071 508.01 609.921 510.011 611.414 511.479C612.908 512.947 614.924 513.762 617.019 513.745H649.755C651.843 513.753 653.85 512.933 655.336 511.466C656.823 509.999 657.667 508.004 657.686 505.916V452.555C657.677 451.517 657.463 450.492 657.057 449.537C656.652 448.582 656.062 447.716 655.321 446.989C654.581 446.262 653.705 445.688 652.742 445.3C651.78 444.912 650.75 444.716 649.712 444.726ZM633.369 432.989C633.021 432.984 632.681 432.875 632.394 432.677C632.107 432.48 631.885 432.202 631.756 431.878C631.627 431.554 631.596 431.2 631.668 430.859C631.74 430.518 631.911 430.206 632.16 429.962C632.409 429.718 632.725 429.553 633.067 429.488C633.41 429.423 633.764 429.46 634.085 429.596C634.406 429.731 634.68 429.959 634.872 430.25C635.064 430.54 635.166 430.881 635.165 431.23C635.159 431.701 634.967 432.151 634.63 432.48C634.294 432.81 633.84 432.993 633.369 432.989Z" fill="#FFE6AA"/>
<path opacity="0.2" d="M647.351 443.51H642.693C641.006 443.51 639.388 442.84 638.194 441.648C637.001 440.455 636.331 438.838 636.331 437.151V435.78C636.331 434.952 636.492 434.131 636.805 433.364C636.95 433.008 637.13 432.667 637.342 432.346C637.655 431.577 637.816 430.754 637.815 429.923V429.025C637.815 427.339 637.145 425.721 635.952 424.529C634.759 423.336 633.141 422.666 631.454 422.666H630.542C628.854 422.666 627.236 423.336 626.043 424.529C624.85 425.721 624.18 427.339 624.18 429.025V429.923C624.18 430.754 624.34 431.577 624.653 432.346C624.866 432.667 625.046 433.008 625.19 433.364C625.503 434.131 625.664 434.952 625.664 435.78V437.151C625.664 438.838 624.994 440.455 623.801 441.648C622.608 442.84 620.989 443.51 619.302 443.51H614.644C613.598 443.51 612.562 443.715 611.596 444.114C610.629 444.513 609.751 445.099 609.011 445.838C608.271 446.577 607.684 447.455 607.284 448.42C606.883 449.386 606.677 450.421 606.677 451.467V505.803C606.677 507.915 607.516 509.941 609.01 511.434C610.505 512.927 612.531 513.766 614.644 513.766H647.38C649.493 513.766 651.519 512.927 653.013 511.434C654.507 509.941 655.346 507.915 655.346 505.803V451.467C655.346 450.419 655.139 449.381 654.737 448.414C654.335 447.446 653.745 446.568 653.003 445.828C652.26 445.089 651.378 444.504 650.408 444.106C649.438 443.708 648.4 443.506 647.351 443.51V443.51ZM630.98 431.562C630.625 431.562 630.278 431.457 629.982 431.26C629.687 431.062 629.457 430.782 629.321 430.454C629.185 430.126 629.15 429.765 629.219 429.417C629.288 429.069 629.459 428.749 629.71 428.498C629.961 428.247 630.281 428.076 630.63 428.007C630.978 427.938 631.339 427.973 631.667 428.109C631.995 428.245 632.276 428.475 632.473 428.77C632.67 429.065 632.775 429.412 632.775 429.767C632.775 430.243 632.586 430.7 632.25 431.036C631.913 431.373 631.456 431.562 630.98 431.562V431.562Z" stroke="#F1B104" stroke-width="3" stroke-linecap="round" stroke-linejoin="round"/>
</g>
</g>
<g opacity="0.2">
<g opacity="0.2">
<path opacity="0.2" d="M184.985 383.246H809.723" stroke="#F1B104" stroke-width="3" stroke-linecap="round" stroke-linejoin="round"/>
<path opacity="0.2" d="M444.256 154.022V383.239" stroke="#F1B104" stroke-width="3" stroke-linecap="round" stroke-linejoin="round"/>
<path opacity="0.2" d="M670.205 154.022V383.239" stroke="#F1B104" stroke-width="3" stroke-linecap="round" stroke-linejoin="round"/>
<path opacity="0.2" d="M670.212 259.452H444.256V271.061H670.212V259.452Z" stroke="#F1B104" stroke-width="3" stroke-linecap="round" stroke-linejoin="round"/>
<path opacity="0.2" d="M670.212 154.022H444.256V165.631H670.212V154.022Z" stroke="#F1B104" stroke-width="3" stroke-linecap="round" stroke-linejoin="round"/>
<path opacity="0.2" d="M670.212 371.636H444.256V383.246H670.212V371.636Z" stroke="#F1B104" stroke-width="3" stroke-linecap="round" stroke-linejoin="round"/>
<path opacity="0.2" d="M311.772 170.62H202.721V366.733H311.772V170.62Z" stroke="#F1B104" stroke-width="3" stroke-linecap="round" stroke-linejoin="round"/>
<path opacity="0.2" d="M299.946 270.326C302.745 270.326 305.014 268.058 305.014 265.26C305.014 262.462 302.745 260.194 299.946 260.194C297.146 260.194 294.877 262.462 294.877 265.26C294.877 268.058 297.146 270.326 299.946 270.326Z" stroke="#F1B104" stroke-width="3" stroke-linecap="round" stroke-linejoin="round"/>
<path opacity="0.2" d="M330.356 270.326C333.155 270.326 335.424 268.058 335.424 265.26C335.424 262.462 333.155 260.194 330.356 260.194C327.557 260.194 325.287 262.462 325.287 265.26C325.287 268.058 327.557 270.326 330.356 270.326Z" stroke="#F1B104" stroke-width="3" stroke-linecap="round" stroke-linejoin="round"/>
<path opacity="0.2" d="M429.546 170.62H320.495V366.733H429.546V170.62Z" stroke="#F1B104" stroke-width="3" stroke-linecap="round" stroke-linejoin="round"/>
<path opacity="0.2" d="M184.985 154.022H809.539" stroke="#F1B104" stroke-width="3" stroke-linecap="round" stroke-linejoin="round"/>
<path opacity="0.2" d="M794.037 170.62H684.986V366.733H794.037V170.62Z" stroke="#F1B104" stroke-width="3" stroke-linecap="round" stroke-linejoin="round"/>
<path opacity="0.2" d="M696.565 270.326C699.364 270.326 701.633 268.058 701.633 265.26C701.633 262.462 699.364 260.194 696.565 260.194C693.766 260.194 691.496 262.462 691.496 265.26C691.496 268.058 693.766 270.326 696.565 270.326Z" stroke="#F1B104" stroke-width="3" stroke-linecap="round" stroke-linejoin="round"/>
</g>
<g opacity="0.2">
<g opacity="0.2">
<path opacity="0.2" d="M643.032 230.623C643.032 243.391 635.963 254.279 626.003 258.54H607.405C597.452 254.301 590.376 243.391 590.376 230.623C590.376 219.374 595.869 209.581 603.984 204.479C604.731 204.014 605.347 203.366 605.775 202.597C606.202 201.829 606.428 200.964 606.43 200.084C606.429 199.215 606.209 198.359 605.79 197.597C605.371 196.835 604.767 196.191 604.033 195.725L601.418 194.057C601.256 193.953 601.132 193.799 601.064 193.618C600.997 193.437 600.991 193.239 601.046 193.054C601.101 192.869 601.214 192.707 601.369 192.592C601.525 192.478 601.713 192.416 601.906 192.418H626.194C626.432 192.416 626.667 192.466 626.883 192.564C627.1 192.662 627.292 192.805 627.448 192.984C627.604 193.163 627.719 193.374 627.786 193.602C627.852 193.83 627.869 194.069 627.834 194.304L626.979 200.098C626.981 200.978 627.206 201.843 627.634 202.611C628.062 203.38 628.678 204.028 629.425 204.493C637.533 209.581 643.032 219.374 643.032 230.623Z" fill="white"/>
<path opacity="0.2" d="M639.441 230.771C639.441 243.815 632.245 254.944 622.116 259.296H603.192C593.063 254.951 585.859 243.815 585.859 230.771C585.859 219.275 591.451 209.27 599.714 204.076C600.474 203.598 601.101 202.935 601.536 202.149C601.971 201.363 602.2 200.48 602.203 199.583V199.583C602.203 198.693 601.98 197.817 601.552 197.036C601.125 196.256 600.507 195.596 599.757 195.117L597.099 193.407C596.935 193.3 596.809 193.143 596.742 192.959C596.674 192.775 596.667 192.574 596.723 192.386C596.779 192.198 596.893 192.033 597.05 191.915C597.207 191.797 597.398 191.733 597.594 191.732H622.335C622.577 191.733 622.815 191.785 623.035 191.886C623.255 191.987 623.451 192.134 623.609 192.317C623.767 192.5 623.884 192.714 623.952 192.946C624.02 193.178 624.037 193.422 624.003 193.661L623.126 199.583C623.128 200.481 623.358 201.365 623.794 202.151C624.231 202.937 624.859 203.6 625.622 204.076C633.857 209.27 639.441 219.282 639.441 230.771Z" stroke="#F1B104" stroke-width="3" stroke-linecap="round" stroke-linejoin="round"/>
<path opacity="0.2" d="M630.542 208.33H634.924C636.797 208.328 638.652 208.695 640.383 209.41C642.114 210.125 643.687 211.174 645.013 212.497C646.338 213.82 647.39 215.391 648.108 217.12C648.825 218.849 649.195 220.703 649.196 222.575V228.807C649.196 231.706 648.044 234.486 645.993 236.536C643.943 238.586 641.161 239.738 638.261 239.738V239.738" stroke="#F1B104" stroke-width="3" stroke-linecap="round" stroke-linejoin="round"/>
</g>
<g opacity="0.2">
<path opacity="0.2" d="M507.43 371.262C528.458 371.262 545.503 354.223 545.503 333.205C545.503 312.187 528.458 295.148 507.43 295.148C486.403 295.148 469.358 312.187 469.358 333.205C469.358 354.223 486.403 371.262 507.43 371.262Z" fill="white"/>
<path opacity="0.2" d="M503.309 371.262C524.902 371.262 542.407 353.765 542.407 332.181C542.407 310.597 524.902 293.099 503.309 293.099C481.716 293.099 464.212 310.597 464.212 332.181C464.212 353.765 481.716 371.262 503.309 371.262Z" stroke="#F1B104" stroke-width="3" stroke-linecap="round" stroke-linejoin="round"/>
<path opacity="0.2" d="M503.309 353.958C515.342 353.958 525.096 344.208 525.096 332.181C525.096 320.154 515.342 310.404 503.309 310.404C491.277 310.404 481.523 320.154 481.523 332.181C481.523 344.208 491.277 353.958 503.309 353.958Z" stroke="#F1B104" stroke-width="3" stroke-linecap="round" stroke-linejoin="round"/>
<path opacity="0.2" d="M572.535 343.203H630.421C630.421 344.398 629.947 345.543 629.103 346.389C628.259 347.234 627.113 347.71 625.919 347.711H577.045C575.848 347.711 574.701 347.236 573.856 346.391C573.01 345.546 572.535 344.399 572.535 343.203Z" fill="#C6EFFF"/>
<path opacity="0.2" d="M567.205 353.216H635.773C635.773 354.631 635.21 355.988 634.209 356.988C633.209 357.988 631.851 358.55 630.436 358.55H572.577C571.162 358.55 569.804 357.988 568.803 356.988C567.802 355.988 567.24 354.631 567.24 353.216H567.205Z" fill="#C6EFFF"/>
<path opacity="0.2" d="M559.91 364.79H643.054C643.052 366.505 642.369 368.149 641.155 369.362C639.94 370.574 638.295 371.255 636.578 371.255H566.378C564.662 371.255 563.017 370.574 561.804 369.361C560.591 368.149 559.91 366.504 559.91 364.79Z" fill="#C6EFFF"/>
<path opacity="0.2" d="M564.547 338.54H638.416C638.6 338.541 638.777 338.607 638.917 338.725C639.057 338.843 639.152 339.007 639.183 339.188C639.215 339.368 639.183 339.554 639.092 339.714C639.001 339.873 638.857 339.995 638.685 340.059L630.853 342.885H572.11L564.278 340.059C564.106 339.995 563.962 339.873 563.871 339.714C563.78 339.554 563.748 339.368 563.78 339.188C563.812 339.007 563.906 338.843 564.046 338.725C564.186 338.607 564.363 338.541 564.547 338.54V338.54Z" stroke="#F4B404" stroke-width="3" stroke-linecap="round" stroke-linejoin="round"/>
<path opacity="0.2" d="M572.111 342.914H630.853C630.853 344.126 630.371 345.289 629.513 346.146C628.655 347.004 627.492 347.485 626.279 347.485H576.684C575.471 347.485 574.308 347.004 573.45 346.146C572.592 345.289 572.111 344.126 572.111 342.914V342.914Z" stroke="#F4B404" stroke-width="3" stroke-linecap="round" stroke-linejoin="round"/>
<path opacity="0.2" d="M557.732 347.535H645.217C645.434 347.535 645.645 347.612 645.811 347.751C645.978 347.891 646.09 348.085 646.128 348.299C646.166 348.513 646.127 348.734 646.019 348.922C645.91 349.11 645.739 349.255 645.535 349.33L636.26 352.714H566.703L557.421 349.33C557.218 349.255 557.047 349.111 556.938 348.924C556.83 348.736 556.791 348.516 556.828 348.302C556.865 348.089 556.975 347.895 557.141 347.755C557.306 347.614 557.516 347.537 557.732 347.535V347.535Z" stroke="#F4B404" stroke-width="3" stroke-linecap="round" stroke-linejoin="round"/>
<path opacity="0.2" d="M566.703 352.714H636.26C636.26 354.15 635.69 355.526 634.674 356.541C633.659 357.556 632.282 358.127 630.846 358.127H572.118C570.681 358.127 569.304 357.556 568.289 356.541C567.273 355.526 566.703 354.15 566.703 352.714V352.714Z" stroke="#F4B404" stroke-width="3" stroke-linecap="round" stroke-linejoin="round"/>
<path opacity="0.2" d="M548.43 358.176H654.533C654.797 358.177 655.051 358.27 655.253 358.439C655.454 358.608 655.59 358.843 655.636 359.102C655.683 359.361 655.636 359.628 655.506 359.856C655.375 360.085 655.169 360.26 654.922 360.352L643.669 364.45H559.295L548.041 360.359C547.789 360.271 547.577 360.096 547.443 359.866C547.308 359.636 547.26 359.365 547.307 359.102C547.354 358.84 547.492 358.603 547.698 358.433C547.904 358.263 548.163 358.172 548.43 358.176V358.176Z" stroke="#F4B404" stroke-width="3" stroke-linecap="round" stroke-linejoin="round"/>
<path opacity="0.2" d="M559.295 364.45H643.669C643.669 366.191 642.977 367.861 641.745 369.092C640.514 370.323 638.843 371.015 637.102 371.015H565.862C564.12 371.015 562.45 370.323 561.218 369.092C559.987 367.861 559.295 366.191 559.295 364.45V364.45Z" stroke="#F4B404" stroke-width="3" stroke-linecap="round" stroke-linejoin="round"/>
</g>
<g opacity="0.2">
<path opacity="0.2" d="M481.276 230.51L481.24 253.297C481.185 254.933 480.486 256.482 479.294 257.605C478.103 258.728 476.516 259.336 474.878 259.296H466.24C464.601 259.336 463.012 258.726 461.82 257.6C460.628 256.474 459.93 254.922 459.878 253.283V230.496L481.276 230.51Z" stroke="#F1B104" stroke-width="3" stroke-linecap="round" stroke-linejoin="round"/>
<path opacity="0.2" d="M481.269 235.103C485.284 235.103 488.535 238.176 488.528 241.957V246.549C488.528 250.33 485.263 253.389 481.247 253.382" stroke="#F1B104" stroke-width="3" stroke-linecap="round" stroke-linejoin="round"/>
<path opacity="0.2" d="M561.005 230.51V253.297C560.95 254.94 560.246 256.493 559.046 257.618C557.847 258.742 556.251 259.346 554.608 259.296H545.963C544.323 259.338 542.732 258.729 541.54 257.602C540.348 256.475 539.651 254.922 539.601 253.283V230.496L561.005 230.51Z" stroke="#F1B104" stroke-width="3" stroke-linecap="round" stroke-linejoin="round"/>
<path opacity="0.2" d="M560.998 235.103C565.02 235.103 568.272 238.176 568.265 241.957V246.549C568.265 250.33 564.999 253.389 560.984 253.382" stroke="#F1B104" stroke-width="3" stroke-linecap="round" stroke-linejoin="round"/>
<path opacity="0.2" d="M521.356 230.51V253.297C521.301 254.933 520.601 256.482 519.41 257.605C518.218 258.728 516.632 259.336 514.994 259.296H506.356C504.716 259.336 503.127 258.726 501.936 257.6C500.744 256.474 500.046 254.922 499.994 253.283V230.496L521.356 230.51Z" fill="white"/>
<path opacity="0.2" d="M521.356 230.51V253.297C521.301 254.933 520.601 256.482 519.41 257.605C518.218 258.728 516.632 259.336 514.994 259.296H506.356C504.716 259.336 503.127 258.726 501.936 257.6C500.744 256.474 500.046 254.922 499.994 253.283V230.496L521.356 230.51Z" stroke="#F1B104" stroke-width="3" stroke-linecap="round" stroke-linejoin="round"/>
<path opacity="0.2" d="M521.349 235.103C525.364 235.103 528.616 238.176 528.609 241.957V246.549C528.609 250.33 525.343 253.389 521.328 253.382" stroke="#F1B104" stroke-width="3" stroke-linecap="round" stroke-linejoin="round"/>
<path opacity="0.2" d="M504.553 236.742C505.428 236.742 506.137 236.033 506.137 235.159C506.137 234.285 505.428 233.576 504.553 233.576C503.679 233.576 502.97 234.285 502.97 235.159C502.97 236.033 503.679 236.742 504.553 236.742Z" fill="#F1B104"/>
<path opacity="0.2" d="M516.669 236.742C517.544 236.742 518.253 236.033 518.253 235.159C518.253 234.285 517.544 233.576 516.669 233.576C515.795 233.576 515.086 234.285 515.086 235.159C515.086 236.033 515.795 236.742 516.669 236.742Z" fill="#F1B104"/>
<path opacity="0.2" d="M510.612 236.742C511.486 236.742 512.195 236.033 512.195 235.159C512.195 234.285 511.486 233.576 510.612 233.576C509.737 233.576 509.028 234.285 509.028 235.159C509.028 236.033 509.737 236.742 510.612 236.742Z" fill="#F1B104"/>
<path opacity="0.2" d="M501.061 241.603C501.936 241.603 502.645 240.895 502.645 240.021C502.645 239.146 501.936 238.438 501.061 238.438C500.187 238.438 499.478 239.146 499.478 240.021C499.478 240.895 500.187 241.603 501.061 241.603Z" fill="#F1B104"/>
<path opacity="0.2" d="M513.793 241.603C514.667 241.603 515.376 240.895 515.376 240.021C515.376 239.146 514.667 238.438 513.793 238.438C512.918 238.438 512.209 239.146 512.209 240.021C512.209 240.895 512.918 241.603 513.793 241.603Z" fill="#F1B104"/>
<path opacity="0.2" d="M520.161 241.603C521.036 241.603 521.745 240.895 521.745 240.021C521.745 239.146 521.036 238.438 520.161 238.438C519.287 238.438 518.578 239.146 518.578 240.021C518.578 240.895 519.287 241.603 520.161 241.603Z" fill="#F1B104"/>
<path opacity="0.2" d="M507.431 241.603C508.305 241.603 509.014 240.895 509.014 240.021C509.014 239.146 508.305 238.438 507.431 238.438C506.556 238.438 505.847 239.146 505.847 240.021C505.847 240.895 506.556 241.603 507.431 241.603Z" fill="#F1B104"/>
<path opacity="0.2" d="M504.553 246.472C505.428 246.472 506.137 245.763 506.137 244.889C506.137 244.015 505.428 243.306 504.553 243.306C503.679 243.306 502.97 244.015 502.97 244.889C502.97 245.763 503.679 246.472 504.553 246.472Z" fill="#F1B104"/>
<path opacity="0.2" d="M516.669 246.472C517.544 246.472 518.253 245.763 518.253 244.889C518.253 244.015 517.544 243.306 516.669 243.306C515.795 243.306 515.086 244.015 515.086 244.889C515.086 245.763 515.795 246.472 516.669 246.472Z" fill="#F1B104"/>
<path opacity="0.2" d="M510.612 246.472C511.486 246.472 512.195 245.763 512.195 244.889C512.195 244.015 511.486 243.306 510.612 243.306C509.737 243.306 509.028 244.015 509.028 244.889C509.028 245.763 509.737 246.472 510.612 246.472Z" fill="#F1B104"/>
<path opacity="0.2" d="M501.061 251.333C501.936 251.333 502.645 250.624 502.645 249.75C502.645 248.876 501.936 248.167 501.061 248.167C500.187 248.167 499.478 248.876 499.478 249.75C499.478 250.624 500.187 251.333 501.061 251.333Z" fill="#F1B104"/>
<path opacity="0.2" d="M513.793 251.333C514.667 251.333 515.376 250.624 515.376 249.75C515.376 248.876 514.667 248.167 513.793 248.167C512.918 248.167 512.209 248.876 512.209 249.75C512.209 250.624 512.918 251.333 513.793 251.333Z" fill="#F1B104"/>
<path opacity="0.2" d="M520.161 251.333C521.036 251.333 521.745 250.624 521.745 249.75C521.745 248.876 521.036 248.167 520.161 248.167C519.287 248.167 518.578 248.876 518.578 249.75C518.578 250.624 519.287 251.333 520.161 251.333Z" fill="#F1B104"/>
<path opacity="0.2" d="M507.431 251.333C508.305 251.333 509.014 250.624 509.014 249.75C509.014 248.876 508.305 248.167 507.431 248.167C506.556 248.167 505.847 248.876 505.847 249.75C505.847 250.624 506.556 251.333 507.431 251.333Z" fill="#F1B104"/>
<path opacity="0.2" d="M504.553 256.201C505.428 256.201 506.137 255.493 506.137 254.619C506.137 253.744 505.428 253.036 504.553 253.036C503.679 253.036 502.97 253.744 502.97 254.619C502.97 255.493 503.679 256.201 504.553 256.201Z" fill="#F1B104"/>
<path opacity="0.2" d="M516.669 256.201C517.544 256.201 518.253 255.493 518.253 254.619C518.253 253.744 517.544 253.036 516.669 253.036C515.795 253.036 515.086 253.744 515.086 254.619C515.086 255.493 515.795 256.201 516.669 256.201Z" fill="#F1B104"/>
<path opacity="0.2" d="M510.612 256.201C511.486 256.201 512.195 255.493 512.195 254.619C512.195 253.744 511.486 253.036 510.612 253.036C509.737 253.036 509.028 253.744 509.028 254.619C509.028 255.493 509.737 256.201 510.612 256.201Z" fill="#F1B104"/>
</g>
</g>
</g>
</g>
<g opacity="0.2">
<path opacity="0.2" d="M1011.81 263.14H823.783C816.193 263.14 810.041 269.29 810.041 276.876V736.574C810.041 744.161 816.193 750.31 823.783 750.31H1011.81C1019.4 750.31 1025.56 744.161 1025.56 736.574V276.876C1025.56 269.29 1019.4 263.14 1011.81 263.14Z" fill="white" stroke="#F1B104" stroke-width="3" stroke-linecap="round" stroke-linejoin="round"/>
<path opacity="0.2" d="M1011.61 390.488H824.638" stroke="#F1B104" stroke-width="3" stroke-linecap="round" stroke-linejoin="round"/>
<path opacity="0.2" d="M880.27 482.295L838.479 483.708C837.873 483.729 837.269 483.628 836.703 483.41C836.137 483.193 835.62 482.863 835.184 482.442C834.748 482.021 834.401 481.516 834.165 480.958C833.928 480.399 833.806 479.799 833.807 479.193C833.807 478.587 833.93 477.987 834.167 477.43C834.404 476.872 834.75 476.368 835.186 475.946C835.622 475.525 836.138 475.196 836.704 474.978C837.269 474.76 837.873 474.658 838.479 474.678L880.27 476.091C881.07 476.12 881.828 476.458 882.384 477.034C882.94 477.61 883.252 478.379 883.253 479.179C883.261 479.985 882.953 480.762 882.396 481.344C881.839 481.926 881.076 482.267 880.27 482.295Z" fill="#FFE6AA" stroke="#F1B104" stroke-width="3" stroke-linecap="round" stroke-linejoin="round"/>
<path opacity="0.2" d="M883.253 299.43H855.204V327.468H883.253V299.43Z" stroke="#F1B104" stroke-width="3" stroke-linecap="round" stroke-linejoin="round"/>
<path opacity="0.2" d="M880.56 301.861H857.897V320.981H880.56V301.861Z" fill="#FFE6AA"/>
<path opacity="0.2" d="M945.501 299.43H906.828V355.865H945.501V299.43Z" fill="#EBF4F7"/>
<path opacity="0.2" d="M915.855 312.431H912.61V314.12H915.855V312.431Z" fill="#F1B104"/>
<path opacity="0.2" d="M939.705 312.431H918.887V314.12H939.705V312.431Z" fill="#F1B104"/>
<path opacity="0.2" d="M915.855 317.427H912.61V319.116H915.855V317.427Z" fill="#F1B104"/>
<path opacity="0.2" d="M939.705 317.427H918.887V319.116H939.705V317.427Z" fill="#F1B104"/>
<path opacity="0.2" d="M915.855 322.43H912.61V324.118H915.855V322.43Z" fill="#F1B104"/>
<path opacity="0.2" d="M939.705 322.43H918.887V324.118H939.705V322.43Z" fill="#F1B104"/>
<path opacity="0.2" d="M915.855 327.425H912.61V329.114H915.855V327.425Z" fill="#F1B104"/>
<path opacity="0.2" d="M939.705 327.425H918.887V329.114H939.705V327.425Z" fill="#F1B104"/>
<path opacity="0.2" d="M915.855 337.423H912.61V339.112H915.855V337.423Z" fill="#F1B104"/>
<path opacity="0.2" d="M939.705 337.423H918.887V339.112H939.705V337.423Z" fill="#F1B104"/>
<path opacity="0.2" d="M915.855 332.421H912.61V334.11H915.855V332.421Z" fill="#F1B104"/>
<path opacity="0.2" d="M939.705 332.421H918.887V334.11H939.705V332.421Z" fill="#F1B104"/>
<path opacity="0.2" d="M926.946 297.402H924.252V301.861H926.946V297.402Z" fill="#F1B104"/>
</g>
<g style="mix-blend-mode:multiply">
<g style="mix-blend-mode:multiply">
<path d="M847.262 228.934C833.703 228.581 838.539 210.111 823.878 207.313C811.861 211.185 804.085 226.263 803.215 227.973C803.278 229.983 803.453 231.988 803.739 233.979L803.032 234.092H825.793V246.952C825.793 256.647 817.933 262.497 808.241 262.497H801.519C791.828 262.497 783.967 256.675 783.967 246.952V234.064H802.346C801.815 229.975 801.633 225.847 801.802 221.727C801.588 216.631 800.594 211.598 798.854 206.804C797.585 203.322 795.819 200.042 793.609 197.067C782.702 188.927 758.759 199.187 754.073 189.485C748.934 178.851 760.124 166.755 776.085 171.884C789.141 176.124 794.415 192.213 795.878 197.929C797.614 200.567 799.038 203.399 800.119 206.366C801.072 208.954 801.802 211.618 802.304 214.329C802.374 213.728 802.452 213.121 802.544 212.499C802.933 209.739 803.466 207 804.142 204.295C800.671 173.912 810.984 160.169 815.657 155.675C820.329 151.181 827.942 148.235 834.743 157.032C841.543 165.829 838.595 178.752 818.484 192.962C813.682 196.408 809.313 200.419 805.471 204.91C804.764 207.659 804.311 210.266 803.972 212.64C803.557 215.592 803.298 218.564 803.194 221.543C803.265 223.324 803.194 224.419 803.194 224.539H803.131C803.131 224.737 803.131 224.942 803.131 225.133C804.677 222.41 806.433 219.811 808.383 217.36C812.865 211.785 817.777 207.977 822.775 206.168C825.716 203.617 836.128 196.276 853.468 202.119C874.215 209.15 861.364 229.273 847.262 228.934Z" fill="#E4F7FF"/>
</g>
</g>
<path d="M800.282 203.978C804.377 198.952 809.133 194.503 814.42 190.75C834.523 176.541 837.457 163.624 830.678 154.827C823.899 146.03 816.371 148.885 811.592 153.464C806.814 158.042 796.154 172.245 800.282 203.978Z" fill="#AEA61F"/>
<path d="M817.777 204.804C817.777 204.804 828.614 192.976 849.34 199.943C870.066 206.91 857.236 227.062 843.112 226.701C828.989 226.341 834.827 206.281 817.777 204.804Z" fill="#AEA61F"/>
<path d="M792.223 197.745C792.223 197.745 787.904 174.81 771.943 169.673C755.981 164.536 744.798 176.647 749.93 187.246C755.062 197.844 783.338 184.56 792.223 197.745Z" fill="#AEA61F"/>
<path d="M798.911 231.852C798.911 231.852 792.853 195.343 818.901 169.673" stroke="#9F9300" stroke-width="3" stroke-linecap="round" stroke-linejoin="round"/>
<path d="M798.366 225.599C798.366 225.599 817.254 185.811 844.215 212.944" stroke="#9F9300" stroke-width="3" stroke-linecap="round" stroke-linejoin="round"/>
<path d="M798.366 222.299C798.366 222.299 800.374 188.383 768.458 180.858" stroke="#9F9300" stroke-width="3" stroke-linecap="round" stroke-linejoin="round"/>
<path d="M779.846 231.852H821.665V244.663C821.665 246.977 821.209 249.269 820.323 251.407C819.437 253.545 818.139 255.487 816.502 257.124C814.865 258.76 812.921 260.058 810.782 260.944C808.643 261.829 806.351 262.285 804.036 262.285H797.476C792.8 262.285 788.316 260.428 785.01 257.124C781.703 253.819 779.846 249.337 779.846 244.663V231.852Z" fill="#F1B104"/>
<path d="M204.624 679.828C204.624 679.828 204.624 580.715 261.613 562.168C261.613 562.168 215.432 612.568 222.303 679.828H204.624Z" fill="#B0A81F"/>
<path opacity="0.5" d="M189.631 679.828C189.631 679.828 175.493 553.42 220.903 509.202C220.903 509.202 195.745 559.271 207.056 679.828H189.631Z" fill="#B0A81F"/>
<path d="M195.745 679.828C195.745 679.828 197.484 561.412 252.763 491.219C252.763 491.219 224.254 531.127 215.093 679.828H195.745Z" fill="#948900"/>
<path opacity="0.34" d="M207.056 679.828C207.056 679.828 219.468 553.152 153.099 505.761C153.099 505.761 207.466 555.271 184.124 679.828H207.056Z" fill="#948900"/>
<path opacity="0.3" d="M199.803 678.055C199.803 678.055 199.386 565.001 139.202 538.108C139.202 538.108 199.386 581.846 179.982 678.055H199.803Z" fill="#948900"/>
<path opacity="0.56" d="M176.469 679.828C176.469 679.828 184.619 627.096 143.118 603.461C143.118 603.461 191.575 614.123 189.631 679.828H176.469Z" fill="#B0A81F"/>
<path d="M225.392 679.214H173.38C168.109 679.214 163.837 683.484 163.837 688.753V740.743C163.837 746.012 168.109 750.282 173.38 750.282H225.392C230.663 750.282 234.935 746.012 234.935 740.743V688.753C234.935 683.484 230.663 679.214 225.392 679.214Z" fill="white" stroke="#F1B104" stroke-width="3" stroke-linecap="round" stroke-linejoin="round"/>
<g opacity="0.2">
<path opacity="0.2" d="M634.168 92.3721H421.855C420.602 92.3721 419.586 93.3876 419.586 94.6403V95.4811C419.586 96.7338 420.602 97.7492 421.855 97.7492H634.168C635.421 97.7492 636.437 96.7338 636.437 95.4811V94.6403C636.437 93.3876 635.421 92.3721 634.168 92.3721Z" stroke="#F1B104" stroke-width="3" stroke-linecap="round" stroke-linejoin="round"/>
<path opacity="0.2" d="M445.182 97.7704V107.677" stroke="#F1B104" stroke-width="3" stroke-linecap="round" stroke-linejoin="round"/>
<path opacity="0.2" d="M445.182 136.103C452.167 136.103 457.828 130.443 457.828 123.462C457.828 116.481 452.167 110.821 445.182 110.821C438.198 110.821 432.536 116.481 432.536 123.462C432.536 130.443 438.198 136.103 445.182 136.103Z" fill="#FFE6AA"/>
<path opacity="0.2" d="M430.825 114.467C432.511 112.261 434.683 110.473 437.172 109.243C439.662 108.012 442.402 107.372 445.179 107.372C447.956 107.372 450.696 108.012 453.185 109.243C455.674 110.473 457.846 112.261 459.532 114.467" stroke="#F1B104" stroke-width="3" stroke-linecap="round" stroke-linejoin="round"/>
<path opacity="0.2" d="M527.782 97.622V107.521" stroke="#F1B104" stroke-width="3" stroke-linecap="round" stroke-linejoin="round"/>
<path opacity="0.2" d="M527.782 135.954C534.766 135.954 540.428 130.295 540.428 123.314C540.428 116.332 534.766 110.673 527.782 110.673C520.797 110.673 515.136 116.332 515.136 123.314C515.136 130.295 520.797 135.954 527.782 135.954Z" fill="#FFE6AA"/>
<path opacity="0.2" d="M513.425 114.305C515.111 112.098 517.283 110.311 519.772 109.08C522.261 107.849 525.001 107.209 527.778 107.209C530.555 107.209 533.295 107.849 535.785 109.08C538.274 110.311 540.446 112.098 542.132 114.305" stroke="#F1B104" stroke-width="3" stroke-linecap="round" stroke-linejoin="round"/>
<path opacity="0.2" d="M610.791 97.622V107.521" stroke="#F1B104" stroke-width="3" stroke-linecap="round" stroke-linejoin="round"/>
<path opacity="0.2" d="M610.791 135.954C617.776 135.954 623.438 130.295 623.438 123.314C623.438 116.332 617.776 110.673 610.791 110.673C603.807 110.673 598.145 116.332 598.145 123.314C598.145 130.295 603.807 135.954 610.791 135.954Z" fill="#FFE6AA"/>
<path opacity="0.2" d="M596.434 114.305C598.12 112.098 600.292 110.311 602.781 109.08C605.271 107.849 608.011 107.209 610.788 107.209C613.565 107.209 616.305 107.849 618.794 109.08C621.283 110.311 623.455 112.098 625.141 114.305" stroke="#F1B104" stroke-width="3" stroke-linecap="round" stroke-linejoin="round"/>
</g>
<path d="M725.837 220.801C734.324 220.801 741.204 213.924 741.204 205.44C741.204 196.956 734.324 190.079 725.837 190.079C717.349 190.079 710.469 196.956 710.469 205.44C710.469 213.924 717.349 220.801 725.837 220.801Z" fill="#3A193F"/>
<path d="M677.005 221.162C680.059 218.039 693.843 209.418 701.52 206.882C708.03 204.762 722.161 203.532 727.873 216.364C733.584 229.196 728.092 240.24 736.574 247.892C745.057 255.544 789.753 261.317 770.696 310.495C761.98 332.979 670.269 305.549 667.109 280.889C665.052 264.871 687.785 258.222 685.028 253.276C681.494 246.945 665.101 233.322 677.005 221.162Z" fill="#3A193F"/>
<path d="M665.045 281.222C661.447 263.606 683.982 258.908 683.212 252.895C682.363 246.267 666.246 232.623 678.334 221.381" stroke="#3A193F" stroke-width="3" stroke-linecap="round" stroke-linejoin="round"/>
<path d="M714.965 248.471C714.965 248.471 713.332 271.442 728.862 278.402C728.862 278.402 710.363 293.34 690.266 280.868C690.266 280.868 702.799 278.409 697.455 250.711L714.965 248.471Z" fill="#B57E6F"/>
<path d="M704.807 269.485C713.962 269.485 721.383 262.934 721.383 254.852C721.383 246.77 713.962 240.218 704.807 240.218C695.652 240.218 688.23 246.77 688.23 254.852C688.23 262.934 695.652 269.485 704.807 269.485Z" fill="#3A193F"/>
<path d="M717.849 245.984C718.238 249.029 711.989 261.204 697.759 262.864C693.822 263.331 686.025 255.678 684.922 247.948C684.025 241.716 682.936 234.679 682.802 232.467C682.763 229.362 683.797 226.338 685.728 223.906C687.659 221.473 690.371 219.78 693.405 219.113C696.508 218.569 702.594 218.696 705.118 226.963C708.207 237.017 715.135 237.335 718.443 236.777C719.065 236.049 718.082 244.189 717.849 245.984Z" fill="#B57E6F"/>
<path d="M689.27 218.646C689.27 218.646 698.544 215.325 702.036 226.673C705.486 237.901 711.932 235.534 716.308 234.622" stroke="#3A193F" stroke-width="3" stroke-linecap="round" stroke-linejoin="round"/>
<path d="M720.097 590V589.866C715.149 561.277 692.097 432.255 738.349 425.598C746.966 424.362 775.107 434.41 772.223 487.305C769.89 529.841 756.912 560.98 754.748 586.764C754.692 607.961 763.691 618.687 766.101 636.931C769.452 662.369 762.008 704.425 756.721 724.315C756.523 726.322 756.53 733.374 758.891 736.829C761.252 740.284 762.425 740.503 762.008 744.389H734.8C734.914 743.066 735.412 741.804 736.234 740.76C737.055 739.715 738.163 738.934 739.423 738.51C743.827 737.041 749.242 726.725 748.125 722.315C741.473 697.027 730.142 643.178 728.664 635.045L720.097 590Z" fill="#B57E6F"/>
<path d="M803.7 380.483H712.54V676.96H803.7V380.483Z" fill="#41465A"/>
<path d="M759.195 737.196C761.506 739.5 762.411 741.231 761.966 744.418H734.758C734.758 744.418 733.556 739.683 741.12 736.511C743.756 735.408 756.699 734.695 759.195 737.196Z" fill="#F1B104"/>
<path d="M690.146 588.184C687.948 609.283 695.801 620.814 696.353 639.207C697.06 663.563 685.905 701.386 678.235 721.277V721.319C677.224 723.962 677.422 729.289 678.539 732.13C680.476 737.076 682.074 744.417 675.295 744.417H637.971C637.971 744.417 637.109 739.584 647.005 738.221C656.555 736.906 668.918 731.473 668.819 722.16C665.115 697.062 659.941 642.061 659.298 633.717C658.548 624.022 656.223 598.345 655.537 590.162C655.534 590.151 655.534 590.139 655.537 590.127C652.794 564.789 638.452 429.605 683.346 425.69C692.027 424.941 719.546 436.572 713.509 489.212C708.921 529.17 695.469 558.458 690.888 583.153C690.627 584.969 690.302 586.672 690.146 588.184Z" fill="#B57E6F"/>
<path d="M721.383 380.483H630.224V676.96H721.383V380.483Z" fill="#41465A"/>
<path d="M678.518 732.13C678.518 732.13 684.173 744.418 675.966 744.418H637.971C637.971 744.418 636.444 739.768 646.312 738.221C647.684 738.009 651.614 737.274 651.614 737.274C651.614 737.274 650.391 740.708 659.079 740.333C667.766 739.959 671.675 732.731 678.518 732.13Z" fill="#F1B104"/>
<path d="M680.582 387.542C680.115 373.304 677.147 359.349 675.429 358.211C670.092 354.678 666.819 347.86 667.25 338.66C650.766 336.208 640.77 324.528 640.77 324.528C640.77 324.528 653.035 303.076 659.701 295.389C665.921 288.231 677.5 284.083 685.601 281.872L690.266 280.875C708.935 292.463 726.819 280.119 729.216 278.303L741.233 283.002C746.831 285.256 753.957 288.563 758.339 293.636C765.005 301.317 777.27 322.776 777.27 322.776C777.27 322.776 763.733 336.667 745.46 338.201C741.219 355.625 737.621 383.147 738.971 387.662" fill="#F1B104"/>
<g style="mix-blend-mode:multiply">
<path d="M692.938 280.932L694.826 278.869C694.691 279.483 688.132 317.943 688.358 326.365H717.234C721.878 312.135 729.513 277.611 729.513 277.611C729.513 277.611 732.588 277.364 732.093 282.451C730.637 297.388 726.31 321.101 726.31 326.38H726.381C726.381 326.38 732.835 365.418 747.998 398.388C763.16 431.357 765.712 537.451 747.757 542.376C709.253 552.94 669.866 547.28 658.174 539.96C649.762 534.688 650.907 450.576 678.801 406.478C688.153 391.704 675.04 368.768 674.262 359.363C673.146 346.016 682.745 326.38 682.745 326.38L692.938 280.932Z" fill="#E3E3E3"/>
</g>
<path d="M745.227 391.449C760.389 424.418 758.969 529.234 741.183 534.745C703.11 546.587 665.342 542.892 654.017 533.713C646.312 527.46 647.097 443.638 674.998 399.54C684.343 384.765 671.237 361.829 670.452 352.424C669.343 339.077 678.935 326.358 678.935 326.358C678.935 321.08 686.555 283.334 690.867 280.579C695.179 277.823 695.172 278.508 695.172 278.508C695.172 278.508 686.046 317.865 686.279 326.358H715.156C719.8 312.128 728.127 277.604 728.127 277.604C728.127 277.604 732.227 275.943 732.093 281.059C731.711 294.993 722.507 321.094 722.507 326.372H722.578C727.38 345.562 733.645 364.355 741.318 382.589C741.692 378.504 742.965 369.446 746.761 374.194C749.334 377.416 745.658 382.306 743.156 385.005C746.874 386.199 754.741 389.393 757.003 395.455L753.554 398.013L744.548 389.965L745.227 391.449Z" fill="#EBF4F7"/>
<path d="M749.659 484.372H648.581C647.055 484.372 645.817 485.609 645.817 487.135V488.167C645.817 489.693 647.055 490.929 648.581 490.929H749.659C751.185 490.929 752.423 489.693 752.423 488.167V487.135C752.423 485.609 751.185 484.372 749.659 484.372Z" fill="white" stroke="#F1B104" stroke-width="3" stroke-miterlimit="10"/>
<path d="M744.824 468.382C736.652 472.085 763.952 401.829 768.434 394.275C762.934 382.179 753.094 357.922 745.644 338.173C755.286 337.325 763.599 333.036 769.275 329.199C769.275 329.199 787.908 369.644 787.788 395.674C787.788 403.949 759.322 461.818 744.824 468.382Z" fill="#B57E6F"/>
<path d="M771.134 333.841C766.999 338.144 757.223 342.539 748.471 345.648C747.312 343.097 746.238 340.61 745.248 338.208H745.644C755.286 337.36 763.599 333.071 769.275 329.234C769.883 330.671 770.503 332.207 771.134 333.841Z" fill="#3A193F"/>
<path d="M748.782 464.489C748.782 462.977 736.681 460.391 732.453 460.476C728.226 460.56 721.638 463.45 720.62 464.192C719.602 464.934 716.456 469.294 716.456 469.294C716.456 469.294 717.496 471.414 720.493 469.209C723.49 467.004 729.739 467.485 730.863 468.623C733.394 471.194 726.303 468.531 725.137 469.442C723.971 470.354 724.133 471.166 724.133 471.166C724.133 471.166 731.202 472.671 732.333 472.862C733.464 473.053 738.596 471.76 741.318 470.629C744.039 469.499 748.825 466.708 748.782 464.489Z" fill="#B57E6F"/>
<path d="M727.003 484.076C732.406 484.076 736.786 480.077 736.786 475.144C736.786 470.212 732.406 466.213 727.003 466.213C721.6 466.213 717.22 470.212 717.22 475.144C717.22 480.077 721.6 484.076 727.003 484.076Z" fill="#F0512F"/>
<path d="M725.186 483.666C729.426 483.666 732.863 480.148 732.863 475.808C732.863 471.469 729.426 467.951 725.186 467.951C720.947 467.951 717.51 471.469 717.51 475.808C717.51 480.148 720.947 483.666 725.186 483.666Z" fill="#F26B4E"/>
<path d="M726.226 473.215C726.226 473.759 725.187 475.243 725.187 475.243C725.187 475.243 724.147 473.759 724.147 473.215C724.147 472.94 724.257 472.676 724.452 472.481C724.647 472.286 724.911 472.177 725.187 472.177C725.462 472.177 725.726 472.286 725.921 472.481C726.116 472.676 726.226 472.94 726.226 473.215Z" fill="#F0512F"/>
<path d="M724.147 478.402C724.147 477.858 725.187 476.381 725.187 476.381C725.187 476.381 726.226 477.858 726.226 478.402C726.226 478.677 726.116 478.941 725.921 479.136C725.726 479.331 725.462 479.44 725.187 479.44C724.911 479.44 724.647 479.331 724.452 479.136C724.257 478.941 724.147 478.677 724.147 478.402Z" fill="#F0512F"/>
<path d="M722.437 474.826C723.009 474.826 724.557 475.816 724.557 475.816C724.557 475.816 723.002 476.805 722.437 476.805C722.174 476.805 721.923 476.701 721.737 476.515C721.551 476.33 721.447 476.078 721.447 475.816C721.447 475.553 721.551 475.302 721.737 475.116C721.923 474.931 722.174 474.826 722.437 474.826Z" fill="#F0512F"/>
<path d="M727.908 476.798C727.335 476.798 725.787 475.809 725.787 475.809C725.787 475.809 727.343 474.819 727.908 474.819C728.171 474.819 728.422 474.923 728.608 475.109C728.793 475.295 728.898 475.546 728.898 475.809C728.898 476.071 728.793 476.322 728.608 476.508C728.422 476.693 728.171 476.798 727.908 476.798Z" fill="#F0512F"/>
<path d="M720.183 482.503C724.413 479.94 726.149 475.07 724.061 471.626C721.972 468.182 716.85 467.468 712.62 470.031C708.39 472.593 706.654 477.463 708.742 480.907C710.831 484.351 715.953 485.065 720.183 482.503Z" fill="#F0512F"/>
<path d="M719.45 481.902C723.032 479.322 724.219 474.848 722.101 471.91C719.983 468.972 715.361 468.683 711.779 471.263C708.197 473.844 707.011 478.317 709.129 481.255C711.247 484.193 715.868 484.483 719.45 481.902Z" fill="#F26B4E"/>
<path d="M717.078 474.296C716.713 474.966 716.254 475.58 715.714 476.119C715.714 476.119 715.007 474.784 715.078 474.296C715.148 474.038 715.303 473.811 715.516 473.65C715.73 473.489 715.991 473.403 716.259 473.406C716.376 473.393 716.494 473.407 716.605 473.448C716.716 473.489 716.815 473.556 716.895 473.643C716.975 473.73 717.033 473.834 717.065 473.948C717.097 474.061 717.102 474.181 717.078 474.296Z" fill="#F0512F"/>
<path d="M714.152 478.967C714.515 478.296 714.975 477.682 715.516 477.144C715.516 477.144 716.223 478.472 716.153 478.967C716.082 479.224 715.929 479.45 715.717 479.611C715.505 479.772 715.246 479.859 714.979 479.857C714.862 479.87 714.743 479.856 714.632 479.815C714.521 479.773 714.422 479.707 714.341 479.62C714.261 479.534 714.202 479.43 714.169 479.316C714.136 479.203 714.13 479.083 714.152 478.967Z" fill="#F0512F"/>
<path d="M713.162 475.738C713.837 475.921 714.474 476.222 715.043 476.628C714.341 477.022 713.59 477.322 712.809 477.518C712.692 477.532 712.573 477.517 712.462 477.476C712.352 477.435 712.253 477.368 712.173 477.282C712.093 477.195 712.034 477.09 712.002 476.977C711.971 476.863 711.966 476.744 711.989 476.628C712.06 476.372 712.213 476.146 712.425 475.985C712.637 475.824 712.896 475.737 713.162 475.738Z" fill="#F0512F"/>
<path d="M718.068 477.518C717.393 477.336 716.757 477.034 716.188 476.628C716.89 476.234 717.641 475.935 718.422 475.738C718.538 475.726 718.657 475.742 718.766 475.783C718.876 475.825 718.975 475.892 719.054 475.978C719.134 476.064 719.192 476.168 719.225 476.281C719.257 476.394 719.263 476.513 719.242 476.628C719.173 476.886 719.02 477.113 718.807 477.274C718.595 477.435 718.335 477.521 718.068 477.518Z" fill="#F0512F"/>
<path d="M625.954 384.447C625.12 387.33 626.081 391.675 629.764 396.911C642.707 415.282 675.28 453.537 685.544 454.625C690.57 455.162 663.164 403.892 642.863 386.284C646.984 380.172 657 358.105 667.208 338.582C657.509 337.586 649.889 332.053 645.004 328.422C645.004 328.422 630.626 359.229 625.954 384.447Z" fill="#B57E6F"/>
<path d="M664.288 344.108C655.884 341.281 647.698 336.123 643.838 331.389C644.135 330.817 644.75 328.994 645.047 328.436C649.924 332.06 657.481 336.915 667.208 338.568L664.288 344.108Z" fill="#3A193F"/>
<path d="M697.67 460.476L674.141 451.958C673.202 451.617 672.164 452.103 671.824 453.042L670.957 455.434C670.617 456.373 671.103 457.411 672.042 457.751L695.57 466.269C696.51 466.609 697.548 466.123 697.888 465.184L698.755 462.792C699.095 461.853 698.609 460.816 697.67 460.476Z" fill="#41465A"/>
<path d="M735.769 476.24L698.721 462.814L696.148 469.88C696.148 469.88 720.316 482.005 735.769 476.24Z" fill="#C6EFFF"/>
<path d="M682.971 447.672C685.65 447.51 697.618 453.212 698.127 454.674C698.636 456.137 705.372 464.291 705.372 464.291C705.372 464.291 703.627 466.079 700.721 463.118C697.342 459.684 695.921 459.811 695.921 459.811C695.921 459.811 694.762 462.256 692.981 462.08C691.199 461.903 691.814 464.242 688.98 464.418C687.319 464.517 686.386 465.577 684.972 464.8C683.558 464.023 679.218 454.081 679.896 450.753C680.462 447.934 681.381 447.764 682.971 447.672Z" fill="#B57E6F"/>
<path d="M698.127 480.507H683.784C683.183 480.507 682.696 480.995 682.696 481.595V482.005C682.696 482.606 683.183 483.093 683.784 483.093H698.127C698.728 483.093 699.216 482.606 699.216 482.005V481.595C699.216 480.995 698.728 480.507 698.127 480.507Z" fill="#F0512F"/>
<path d="M712.493 483.44C716.762 481.976 719.337 478.21 718.245 475.028C717.153 471.846 712.807 470.454 708.538 471.918C704.269 473.383 701.694 477.149 702.787 480.331C703.879 483.512 708.225 484.905 712.493 483.44Z" fill="#F0512F"/>
<path d="M711.785 483.17C715.511 481.7 717.625 478.214 716.508 475.382C715.39 472.551 711.464 471.446 707.738 472.916C704.012 474.385 701.897 477.872 703.015 480.703C704.132 483.535 708.059 484.639 711.785 483.17Z" fill="#F26B4E"/>
<path d="M711.127 476.098C711.035 476.501 709.847 477.589 709.847 477.589C709.847 477.589 709.14 476.501 709.253 476.098C709.34 475.88 709.493 475.694 709.691 475.568C709.889 475.441 710.121 475.379 710.356 475.392C710.886 475.37 711.233 475.695 711.127 476.098Z" fill="#F0512F"/>
<path d="M708.398 479.907C708.49 479.511 709.677 478.423 709.677 478.423C709.677 478.423 710.384 479.511 710.271 479.907C710.185 480.126 710.032 480.312 709.834 480.439C709.636 480.565 709.403 480.627 709.168 480.613C708.652 480.635 708.299 480.309 708.398 479.907Z" fill="#F0512F"/>
<path d="M707.479 477.278C708.098 477.418 708.69 477.657 709.232 477.985C708.556 478.305 707.844 478.542 707.111 478.691C706.595 478.691 706.256 478.366 706.341 477.985C706.43 477.761 706.588 477.571 706.793 477.444C706.998 477.316 707.239 477.258 707.479 477.278Z" fill="#F0512F"/>
<path d="M712.06 478.727C711.441 478.587 710.849 478.348 710.307 478.02C710.971 477.703 711.671 477.466 712.392 477.314C712.908 477.314 713.254 477.639 713.162 478.02C713.076 478.238 712.922 478.424 712.725 478.551C712.527 478.677 712.294 478.739 712.06 478.727Z" fill="#F0512F"/>
<path d="M684.35 234.622C684.35 234.622 685.58 232.163 689.885 233.393" stroke="#3A193F" stroke-width="3" stroke-linecap="round" stroke-linejoin="round"/>
<path d="M698.487 240.148C698.487 240.148 702.905 239.731 705.245 237.696" stroke="#3A193F" stroke-width="3" stroke-linecap="round" stroke-linejoin="round"/>
<path d="M696.027 253.05C696.027 253.05 698.487 253.665 701.562 250.591" stroke="#3A193F" stroke-width="2" stroke-linecap="round" stroke-linejoin="round"/>
<path d="M693.567 240.148L692.337 245.68L694.43 248.175" stroke="#9E2923" stroke-width="2" stroke-linecap="round" stroke-linejoin="round"/>
<path d="M721.937 240.11C723.47 237.084 722.258 233.39 719.231 231.858C716.204 230.326 712.508 231.538 710.976 234.563C709.444 237.589 710.655 241.283 713.682 242.815C716.709 244.346 720.405 243.135 721.937 240.11Z" fill="#B57E6F"/>
<path d="M685.58 241.377C685.58 241.377 687.319 242.253 690.754 240.897" stroke="#3A193F" stroke-width="3" stroke-linecap="round" stroke-linejoin="round"/>
<path d="M696.642 233.393C696.642 233.393 699.102 230.121 705.245 232.375" stroke="#3A193F" stroke-width="3" stroke-linecap="round" stroke-linejoin="round"/>
<path d="M587.683 387.718C593.512 387.718 598.237 382.995 598.237 377.169C598.237 371.343 593.512 366.62 587.683 366.62C581.854 366.62 577.129 371.343 577.129 377.169C577.129 382.995 581.854 387.718 587.683 387.718Z" fill="#41465A"/>
<path d="M556.333 384.171C562.162 384.171 566.887 379.448 566.887 373.622C566.887 367.796 562.162 363.073 556.333 363.073C550.504 363.073 545.779 367.796 545.779 373.622C545.779 379.448 550.504 384.171 556.333 384.171Z" fill="#41465A"/>
<path d="M542.471 573.706L522.727 758.125C522.697 758.413 522.727 758.705 522.816 758.981C522.906 759.256 523.052 759.51 523.246 759.725C523.44 759.941 523.678 760.113 523.943 760.23C524.208 760.348 524.495 760.408 524.785 760.408C525.265 760.408 525.73 760.241 526.1 759.935C526.471 759.63 526.723 759.204 526.813 758.733L558.899 573.741L542.471 573.706Z" fill="white" stroke="#F1B104" stroke-width="3" stroke-miterlimit="10"/>
<path d="M618.157 573.706L637.9 754.536C637.93 754.824 637.899 755.115 637.809 755.39C637.719 755.665 637.573 755.918 637.379 756.134C637.185 756.349 636.948 756.521 636.684 756.639C636.419 756.756 636.133 756.818 635.843 756.818C635.363 756.818 634.898 756.651 634.527 756.346C634.157 756.04 633.905 755.615 633.814 755.143L601.729 573.706H618.157Z" fill="white" stroke="#F1B104" stroke-width="3" stroke-miterlimit="10"/>
<path d="M627.806 562.387H531.26C528.624 562.387 526.488 564.522 526.488 567.156V568.937C526.488 571.571 528.624 573.706 531.26 573.706H627.806C630.441 573.706 632.578 571.571 632.578 568.937V567.156C632.578 564.522 630.441 562.387 627.806 562.387Z" fill="white" stroke="#F1B104" stroke-width="3" stroke-miterlimit="10"/>
<path d="M638.169 559.222C637.603 563.277 611.307 561.087 554.354 561.758C554.245 561.784 554.133 561.795 554.021 561.794C543.418 561.794 534.766 545.648 534.511 503.613C534.257 461.578 549.66 459.374 555.046 459.6C570.965 460.257 572.082 483.256 572.082 503.973C572.077 513.732 570.919 523.456 568.633 532.944C579.512 537.063 581.06 531.403 600.025 535.89C620.56 540.78 638.628 556 638.169 559.222Z" fill="#3A193F"/>
<path d="M662.302 555.151C664.543 556.19 667.992 554.989 669.993 554.96C674.715 554.883 675.69 557.575 675.69 557.575L664.472 582.482C664.472 582.482 660.231 581.267 661.058 573.89C661.927 566.188 662.309 562.867 658.082 561.616C653.855 560.366 658.591 553.441 662.302 555.151Z" fill="#F1B104"/>
<path d="M658.11 561.51C646.093 562.153 621.614 561.298 583.18 561.758C583.071 561.783 582.96 561.795 582.848 561.793C565.749 561.793 563.592 545.648 563.338 503.613C563.084 461.578 578.487 459.373 583.873 459.599C599.785 460.256 600.902 483.256 600.902 503.973C600.9 514.145 599.647 524.278 597.17 534.144C606.529 536.971 609.894 531.424 628.852 535.911C649.352 540.779 661.298 552.014 662.726 556.402C663.122 557.645 663.878 561.199 658.11 561.51Z" fill="#DB9A8F"/>
<path d="M600.852 503.973C600.848 512.574 599.95 521.15 598.173 529.566C586.806 530.59 575.372 530.646 563.996 529.735C563.522 522.457 563.345 513.795 563.289 503.592C563.034 461.55 578.444 459.352 583.831 459.578C599.764 460.264 600.852 483.256 600.852 503.973Z" fill="#3A193F"/>
<path d="M525.781 437.194C541.446 426.241 558.687 408.224 560.291 401.214C562.235 392.735 556.877 383.14 550.395 388.686C540.873 396.777 526.085 411.297 519.398 419.946C509.594 410.301 488.437 390.905 481.983 394.933C479.254 396.643 508.625 433.088 514.167 437.794C517.334 440.507 522.94 439.179 525.781 437.194Z" fill="#DB9A8F"/>
<path d="M492.75 417.952L454.779 448.611L459.212 454.096L497.182 423.438L492.75 417.952Z" fill="#FFE6AA" stroke="#F1B104" stroke-width="3" stroke-miterlimit="10"/>
<path d="M497.181 423.429L494.671 425.457C493.936 425.975 493.03 426.193 492.139 426.067C491.249 425.941 490.439 425.48 489.877 424.778C489.314 424.076 489.041 423.186 489.112 422.289C489.183 421.393 489.594 420.557 490.26 419.953L492.77 417.925L497.181 423.429Z" fill="#F1B104"/>
<path d="M437.901 427.824L454.775 448.605L492.749 417.946L475.868 397.165L437.901 427.824Z" fill="white" stroke="#F1B104" stroke-width="3" stroke-miterlimit="10"/>
<path d="M492.989 424.758C493.403 424.758 493.738 424.422 493.738 424.009C493.738 423.595 493.403 423.26 492.989 423.26C492.575 423.26 492.24 423.595 492.24 424.009C492.24 424.422 492.575 424.758 492.989 424.758Z" fill="#FFE6AA"/>
<path d="M497.923 428.821C498.337 428.821 498.672 428.485 498.672 428.072C498.672 427.658 498.337 427.323 497.923 427.323C497.509 427.323 497.174 427.658 497.174 428.072C497.174 428.485 497.509 428.821 497.923 428.821Z" fill="#FFE6AA"/>
<path d="M501.054 438.875C501.468 438.875 501.804 438.54 501.804 438.126C501.804 437.713 501.468 437.377 501.054 437.377C500.641 437.377 500.305 437.713 500.305 438.126C500.305 438.54 500.641 438.875 501.054 438.875Z" fill="#FFE6AA"/>
<path d="M497.329 441.49C497.743 441.49 498.078 441.154 498.078 440.741C498.078 440.327 497.743 439.992 497.329 439.992C496.915 439.992 496.58 440.327 496.58 440.741C496.58 441.154 496.915 441.49 497.329 441.49Z" fill="#FFE6AA"/>
<path d="M501.804 447.425C502.218 447.425 502.553 447.09 502.553 446.676C502.553 446.262 502.218 445.927 501.804 445.927C501.39 445.927 501.054 446.262 501.054 446.676C501.054 447.09 501.39 447.425 501.804 447.425Z" fill="#FFE6AA"/>
<path d="M503.691 444.104C504.105 444.104 504.44 443.769 504.44 443.355C504.44 442.941 504.105 442.606 503.691 442.606C503.277 442.606 502.942 442.941 502.942 443.355C502.942 443.769 503.277 444.104 503.691 444.104Z" fill="#FFE6AA"/>
<path d="M495.831 436.063C496.244 436.063 496.58 435.728 496.58 435.314C496.58 434.9 496.244 434.565 495.831 434.565C495.417 434.565 495.081 434.9 495.081 435.314C495.081 435.728 495.417 436.063 495.831 436.063Z" fill="#FFE6AA"/>
<path d="M495.088 430.318C495.502 430.318 495.838 429.983 495.838 429.569C495.838 429.156 495.502 428.821 495.088 428.821C494.674 428.821 494.339 429.156 494.339 429.569C494.339 429.983 494.674 430.318 495.088 430.318Z" fill="#FFE6AA"/>
<path d="M497.711 431.004C498.004 431.004 498.241 430.767 498.241 430.474C498.241 430.181 498.004 429.944 497.711 429.944C497.418 429.944 497.181 430.181 497.181 430.474C497.181 430.767 497.418 431.004 497.711 431.004Z" fill="#FFE6AA"/>
<path d="M496.191 427.86C496.484 427.86 496.721 427.622 496.721 427.33C496.721 427.037 496.484 426.8 496.191 426.8C495.898 426.8 495.661 427.037 495.661 427.33C495.661 427.622 495.898 427.86 496.191 427.86Z" fill="#FFE6AA"/>
<path d="M499.542 433.887C499.834 433.887 500.072 433.649 500.072 433.357C500.072 433.064 499.834 432.827 499.542 432.827C499.249 432.827 499.011 433.064 499.011 433.357C499.011 433.649 499.249 433.887 499.542 433.887Z" fill="#FFE6AA"/>
<path d="M500.454 443.609C500.746 443.609 500.984 443.372 500.984 443.079C500.984 442.787 500.746 442.549 500.454 442.549C500.161 442.549 499.923 442.787 499.923 443.079C499.923 443.372 500.161 443.609 500.454 443.609Z" fill="#FFE6AA"/>
<path d="M506.123 452.852C506.416 452.852 506.653 452.614 506.653 452.322C506.653 452.029 506.416 451.792 506.123 451.792C505.83 451.792 505.593 452.029 505.593 452.322C505.593 452.614 505.83 452.852 506.123 452.852Z" fill="#FFE6AA"/>
<path d="M501.054 449.884C501.347 449.884 501.585 449.647 501.585 449.354C501.585 449.061 501.347 448.824 501.054 448.824C500.762 448.824 500.524 449.061 500.524 449.354C500.524 449.647 500.762 449.884 501.054 449.884Z" fill="#FFE6AA"/>
<path d="M505.055 447.743C505.348 447.743 505.586 447.506 505.586 447.213C505.586 446.92 505.348 446.683 505.055 446.683C504.763 446.683 504.525 446.92 504.525 447.213C504.525 447.506 504.763 447.743 505.055 447.743Z" fill="#FFE6AA"/>
<path d="M498.248 449.884C498.541 449.884 498.778 449.647 498.778 449.354C498.778 449.061 498.541 448.824 498.248 448.824C497.955 448.824 497.718 449.061 497.718 449.354C497.718 449.647 497.955 449.884 498.248 449.884Z" fill="#FFE6AA"/>
<path d="M498.248 437.081C498.541 437.081 498.778 436.843 498.778 436.551C498.778 436.258 498.541 436.021 498.248 436.021C497.955 436.021 497.718 436.258 497.718 436.551C497.718 436.843 497.955 437.081 498.248 437.081Z" fill="#FFE6AA"/>
<path d="M504.228 439.631C504.521 439.631 504.758 439.394 504.758 439.101C504.758 438.809 504.521 438.571 504.228 438.571C503.936 438.571 503.698 438.809 503.698 439.101C503.698 439.394 503.936 439.631 504.228 439.631Z" fill="#FFE6AA"/>
<path d="M496.191 443.355C496.484 443.355 496.721 443.118 496.721 442.825C496.721 442.532 496.484 442.295 496.191 442.295C495.898 442.295 495.661 442.532 495.661 442.825C495.661 443.118 495.898 443.355 496.191 443.355Z" fill="#FFE6AA"/>
<path d="M493.738 422.447C493.933 422.447 494.092 422.289 494.092 422.094C494.092 421.899 493.933 421.74 493.738 421.74C493.543 421.74 493.385 421.899 493.385 422.094C493.385 422.289 493.543 422.447 493.738 422.447Z" fill="#FFE6AA"/>
<path d="M495.831 433.18C496.026 433.18 496.184 433.022 496.184 432.827C496.184 432.632 496.026 432.474 495.831 432.474C495.635 432.474 495.477 432.632 495.477 432.827C495.477 433.022 495.635 433.18 495.831 433.18Z" fill="#FFE6AA"/>
<path d="M495.831 433.18C496.026 433.18 496.184 433.022 496.184 432.827C496.184 432.632 496.026 432.474 495.831 432.474C495.635 432.474 495.477 432.632 495.477 432.827C495.477 433.022 495.635 433.18 495.831 433.18Z" fill="#FFE6AA"/>
<path d="M497.181 438.48C497.376 438.48 497.534 438.321 497.534 438.126C497.534 437.931 497.376 437.773 497.181 437.773C496.985 437.773 496.827 437.931 496.827 438.126C496.827 438.321 496.985 438.48 497.181 438.48Z" fill="#FFE6AA"/>
<path d="M500.807 434.918C501.002 434.918 501.16 434.76 501.16 434.565C501.16 434.37 501.002 434.212 500.807 434.212C500.612 434.212 500.454 434.37 500.454 434.565C500.454 434.76 500.612 434.918 500.807 434.918Z" fill="#FFE6AA"/>
<path d="M502.857 436.904C503.052 436.904 503.21 436.746 503.21 436.551C503.21 436.355 503.052 436.197 502.857 436.197C502.662 436.197 502.504 436.355 502.504 436.551C502.504 436.746 502.662 436.904 502.857 436.904Z" fill="#FFE6AA"/>
<path d="M500.072 447.029C500.267 447.029 500.425 446.871 500.425 446.676C500.425 446.481 500.267 446.323 500.072 446.323C499.877 446.323 499.718 446.481 499.718 446.676C499.718 446.871 499.877 447.029 500.072 447.029Z" fill="#FFE6AA"/>
<path d="M497.329 445.814C497.524 445.814 497.683 445.656 497.683 445.461C497.683 445.266 497.524 445.107 497.329 445.107C497.134 445.107 496.976 445.266 496.976 445.461C496.976 445.656 497.134 445.814 497.329 445.814Z" fill="#FFE6AA"/>
<path d="M504.052 448.817C504.247 448.817 504.405 448.659 504.405 448.464C504.405 448.269 504.247 448.11 504.052 448.11C503.856 448.11 503.698 448.269 503.698 448.464C503.698 448.659 503.856 448.817 504.052 448.817Z" fill="#FFE6AA"/>
<path d="M502.949 451.431C503.144 451.431 503.302 451.273 503.302 451.078C503.302 450.883 503.144 450.725 502.949 450.725C502.754 450.725 502.595 450.883 502.595 451.078C502.595 451.273 502.754 451.431 502.949 451.431Z" fill="#FFE6AA"/>
<path d="M505.409 445.814C505.604 445.814 505.762 445.656 505.762 445.461C505.762 445.266 505.604 445.107 505.409 445.107C505.214 445.107 505.055 445.266 505.055 445.461C505.055 445.656 505.214 445.814 505.409 445.814Z" fill="#FFE6AA"/>
<path d="M496.58 448.096C496.775 448.096 496.933 447.938 496.933 447.743C496.933 447.548 496.775 447.39 496.58 447.39C496.385 447.39 496.226 447.548 496.226 447.743C496.226 447.938 496.385 448.096 496.58 448.096Z" fill="#FFE6AA"/>
<path d="M500.072 451.785C500.267 451.785 500.425 451.626 500.425 451.431C500.425 451.236 500.267 451.078 500.072 451.078C499.877 451.078 499.718 451.236 499.718 451.431C499.718 451.626 499.877 451.785 500.072 451.785Z" fill="#FFE6AA"/>
<path d="M502.503 440.5C502.699 440.5 502.857 440.342 502.857 440.147C502.857 439.952 502.699 439.794 502.503 439.794C502.308 439.794 502.15 439.952 502.15 440.147C502.15 440.342 502.308 440.5 502.503 440.5Z" fill="#FFE6AA"/>
<path d="M499.181 445.814C499.376 445.814 499.535 445.656 499.535 445.461C499.535 445.266 499.376 445.107 499.181 445.107C498.986 445.107 498.828 445.266 498.828 445.461C498.828 445.656 498.986 445.814 499.181 445.814Z" fill="#FFE6AA"/>
<path d="M499.181 441.843C499.376 441.843 499.535 441.685 499.535 441.49C499.535 441.294 499.376 441.136 499.181 441.136C498.986 441.136 498.828 441.294 498.828 441.49C498.828 441.685 498.986 441.843 499.181 441.843Z" fill="#FFE6AA"/>
<path d="M483.34 404.874C484.252 404.938 487.411 403.518 487.956 400.783C488.726 396.961 491.936 397.547 488.323 395.498C484.994 393.618 475.5 393.576 473.352 394.247C471.321 395.09 469.522 396.409 468.106 398.091C467.845 398.614 466.191 402.479 466.191 402.479C466.191 402.479 469.775 405.051 471.846 403.065C472.713 402.24 473.747 401.612 474.88 401.224C476.012 400.836 477.215 400.698 478.406 400.818C479.535 400.957 480.571 401.517 481.304 402.387L483.34 404.874Z" fill="#DB9A8F"/>
<path d="M582.092 385.627C586.729 386.969 592.377 389.301 596.152 416.653C599.926 444.005 618.638 519.002 618.956 520.889C619.274 522.775 544.231 528.181 519.695 512.148C519.695 512.148 541.771 405.22 549.342 390.707C551.328 386.892 557.584 385.295 563.303 384.821C569.021 384.348 575.108 383.606 582.092 385.627Z" fill="#EBF4F7"/>
<path d="M577.037 372.428C577.037 372.428 575.405 379.437 582.092 385.627C582.092 385.627 566.427 393.399 556.064 386.277C556.064 386.277 561.719 380.045 561.083 372.428H577.037Z" fill="#DB9A8F"/>
<path d="M578.041 380.052C573.291 383.507 565.805 387.118 558.058 383.507C559.606 380.977 561.444 376.95 561.083 372.421H577.037C576.606 375.008 576.956 377.664 578.041 380.052Z" fill="#3A193F"/>
<path d="M584.403 373.149C584.403 373.149 567.756 389.499 556.029 376.455C546.034 365.305 560.518 339.197 575.405 345.691C587.74 351.068 584.403 373.149 584.403 373.149Z" fill="#DB9A8F"/>
<path d="M571.672 347.351C571.672 347.351 571.849 362.302 584.495 367.687L584.071 375.777C584.071 375.777 596.187 375.6 597.601 365.722C599.806 350.389 592.511 340.737 582.629 338.745C572.747 336.752 555.937 336.971 553.88 348.305C553.435 350.75 554.191 359.102 554.191 359.102C554.191 359.102 558.991 344.666 571.672 347.351Z" fill="#41465A"/>
<path d="M571.672 346.637C571.672 346.637 566.54 361.235 579.872 366.62" stroke="#41465A" stroke-width="3" stroke-miterlimit="10"/>
<path d="M583.732 373.431C583.732 373.431 590.136 372.824 589.521 369.898C588.906 366.973 584.156 367.715 584.156 367.715L583.732 373.431Z" fill="#DB9A8F"/>
<path opacity="0.85" d="M542.633 461.783C540.984 471.097 535.701 479.375 527.946 484.796C520.191 490.217 510.599 492.337 501.281 490.689C496.667 489.873 492.259 488.156 488.309 485.637C484.359 483.118 480.944 479.846 478.26 476.007C475.575 472.169 473.673 467.839 472.662 463.266C471.651 458.693 471.552 453.966 472.369 449.354L542.633 461.783Z" fill="white"/>
<path d="M542.633 461.783C540.984 471.097 535.701 479.375 527.946 484.796C520.191 490.217 510.599 492.337 501.281 490.689V490.689C496.667 489.873 492.259 488.156 488.309 485.637C484.359 483.118 480.944 479.846 478.26 476.007C475.575 472.169 473.673 467.839 472.662 463.266C471.651 458.693 471.552 453.966 472.369 449.354L542.633 461.783Z" stroke="#F1B104" stroke-width="3" stroke-miterlimit="10"/>
<path d="M525.293 483.355C519.33 487.523 512.105 489.495 504.85 488.933C497.595 488.371 490.76 485.311 485.51 480.274C486.924 478.529 496.516 485.22 506.102 480.076C523.095 471.011 525.11 482.026 525.293 483.355Z" fill="#FFE6AA"/>
<path d="M590.002 399.321C591.288 390.707 581.116 388.439 575.603 396.204C570.463 403.454 560.051 436.19 560.051 436.19C556.043 438.31 513.835 466.489 515.249 471.004C516.033 473.512 548.331 462.751 568.159 450.979C572.075 448.464 586.651 421.741 590.002 399.321Z" fill="#DB9A8F"/>
<path d="M519.956 471.244C518.324 471.951 508.024 476.303 505.776 476.19C503.528 476.077 499.068 473.025 498.708 472.579C498.347 472.134 496.714 469.654 496.714 469.654C496.714 469.654 498.446 467.888 500.022 469.654C501.896 471.774 505.253 471.251 507.028 470.537C507.734 470.241 508.887 469.124 508.314 468.213C507.742 467.301 504.872 468.333 503.988 468.128C503.57 468.004 503.19 467.779 502.879 467.473C502.568 467.168 502.338 466.791 502.207 466.376L507.621 464.623C508.491 464.341 514.74 464.623 518.302 466.192C521.865 467.76 523.745 469.534 519.956 471.244Z" fill="#DB9A8F"/>
<path d="M331.261 741.16C331.261 747.159 326.63 749.364 326.63 760.019H373.942C373.942 760.019 374.791 749.024 362.766 748.714C352.446 748.424 344.656 742.114 344.769 741.188C344.882 740.263 331.261 741.16 331.261 741.16Z" fill="#2B303F"/>
<path d="M326.249 758.924H374.246V759.977C374.246 760.169 374.208 760.359 374.135 760.536C374.061 760.714 373.954 760.875 373.818 761.011C373.682 761.147 373.52 761.254 373.343 761.328C373.165 761.401 372.975 761.439 372.783 761.439H327.712C327.324 761.439 326.952 761.285 326.677 761.011C326.403 760.736 326.249 760.364 326.249 759.977V758.924Z" fill="#6DB1BA"/>
<path d="M348.063 751.519H347.915C347.823 751.5 347.736 751.464 347.658 751.411C347.581 751.359 347.515 751.292 347.463 751.213C347.412 751.135 347.377 751.047 347.36 750.956C347.343 750.864 347.344 750.769 347.363 750.678C347.399 750.501 348.282 746.382 350.976 745.166C351.653 744.893 352.387 744.79 353.113 744.868C353.839 744.945 354.535 745.201 355.139 745.612C355.302 745.705 355.421 745.86 355.47 746.041C355.52 746.223 355.494 746.417 355.401 746.58C355.307 746.743 355.152 746.862 354.971 746.911C354.789 746.96 354.595 746.935 354.432 746.841C354.022 746.546 353.546 746.357 353.045 746.291C352.544 746.224 352.035 746.282 351.562 746.46C349.873 747.223 348.961 749.992 348.735 750.968C348.7 751.121 348.615 751.259 348.494 751.358C348.372 751.458 348.221 751.515 348.063 751.519Z" fill="#6DB1BA"/>
<path d="M354.107 751.872H353.923C353.833 751.849 353.748 751.808 353.674 751.753C353.6 751.697 353.537 751.627 353.49 751.547C353.442 751.467 353.411 751.378 353.399 751.286C353.386 751.194 353.391 751.1 353.414 751.01C353.45 750.876 354.263 747.852 356.659 746.77C357.377 746.471 358.155 746.341 358.932 746.388C359.709 746.436 360.464 746.661 361.141 747.046C361.243 747.073 361.337 747.123 361.418 747.191C361.498 747.259 361.562 747.345 361.605 747.441C361.648 747.538 361.669 747.642 361.666 747.748C361.663 747.853 361.637 747.957 361.589 748.051C361.541 748.145 361.472 748.227 361.388 748.291C361.305 748.355 361.207 748.399 361.104 748.421C361.001 748.442 360.894 748.44 360.791 748.415C360.689 748.39 360.593 748.342 360.511 748.275C360.022 747.988 359.474 747.815 358.909 747.77C358.343 747.724 357.774 747.808 357.246 748.014C355.457 748.841 354.793 751.321 354.786 751.342C354.747 751.493 354.659 751.626 354.536 751.722C354.414 751.818 354.263 751.871 354.107 751.872Z" fill="#6DB1BA"/>
<path d="M354.15 738.927C350.655 740.228 347.017 741.103 343.313 741.535C337.022 742.34 325.499 740.701 325.499 740.701C313.391 721.701 300.815 667.145 302.879 622.298C304.031 596.96 318.706 585.874 309.241 563.475C300.914 545.005 271.663 494.229 266.828 452.47C265.075 437.285 267.535 426.171 272.115 418.264C275.148 418.695 278.159 419.098 281.114 419.465C301.26 421.988 319.145 423.076 327.571 422.998C337.382 441.801 348.162 476.247 355.641 544.376L357.684 573.749C358.638 588.311 354.093 661.146 354.15 738.927Z" fill="#41465A"/>
<path d="M222.669 741.16C222.669 747.159 218.032 749.364 218.039 760.019H265.732C265.732 760.019 266.574 749.024 254.549 748.714C244.236 748.424 237.132 742.114 237.245 741.188C237.358 740.263 222.669 741.16 222.669 741.16Z" fill="#2B303F"/>
<path d="M218.053 758.924H266.05V759.977C266.05 760.364 265.896 760.736 265.622 761.011C265.347 761.285 264.975 761.439 264.587 761.439H219.516C219.128 761.439 218.756 761.285 218.481 761.011C218.207 760.736 218.053 760.364 218.053 759.977V758.924Z" fill="#6DB1BA"/>
<path d="M240.341 751.872C240.292 751.879 240.242 751.879 240.193 751.872C240.101 751.853 240.014 751.817 239.936 751.765C239.859 751.712 239.792 751.645 239.741 751.567C239.69 751.489 239.655 751.401 239.637 751.309C239.62 751.217 239.622 751.123 239.641 751.031C239.677 750.862 240.56 746.735 243.253 745.52C243.93 745.246 244.665 745.143 245.391 745.221C246.117 745.298 246.813 745.554 247.417 745.965C247.581 746.059 247.701 746.214 247.751 746.396C247.8 746.578 247.776 746.772 247.682 746.936C247.588 747.1 247.433 747.22 247.251 747.27C247.069 747.32 246.874 747.295 246.71 747.201C246.301 746.905 245.824 746.715 245.323 746.648C244.822 746.582 244.313 746.641 243.84 746.82C242.151 747.576 241.246 750.353 241.013 751.321C240.978 751.474 240.893 751.612 240.771 751.712C240.65 751.812 240.498 751.868 240.341 751.872Z" fill="#6DB1BA"/>
<path d="M246.385 752.232C246.326 752.239 246.267 752.239 246.208 752.232C246.117 752.209 246.032 752.168 245.957 752.112C245.882 752.056 245.819 751.985 245.772 751.904C245.724 751.823 245.693 751.734 245.681 751.641C245.669 751.548 245.675 751.454 245.699 751.363C245.699 751.236 246.54 748.212 248.937 747.124C249.655 746.823 250.432 746.691 251.209 746.737C251.986 746.784 252.742 747.008 253.418 747.392C253.502 747.433 253.577 747.49 253.639 747.56C253.701 747.63 253.749 747.711 253.78 747.799C253.81 747.888 253.823 747.981 253.817 748.074C253.812 748.167 253.788 748.259 253.747 748.343C253.706 748.426 253.649 748.502 253.579 748.564C253.509 748.626 253.428 748.673 253.34 748.704C253.251 748.734 253.158 748.747 253.065 748.741C252.972 748.736 252.88 748.712 252.796 748.671C252.307 748.384 251.759 748.211 251.193 748.165C250.628 748.12 250.059 748.204 249.53 748.41C247.742 749.243 247.078 751.716 247.071 751.745C247.024 751.889 246.932 752.014 246.808 752.102C246.685 752.189 246.536 752.235 246.385 752.232Z" fill="#6DB1BA"/>
<path d="M286.154 552.996C285.836 556.006 284.288 566.301 283.129 573.077C280.223 590.141 242.391 733.988 241.543 741.16C241.543 741.16 238.114 742.22 231.42 742.425C226.338 742.491 221.257 742.302 216.194 741.86C208.771 721.058 202.452 666.17 212.504 624.799C217.89 602.591 233.166 589.032 233.915 569.587C230.381 550.198 213.31 489.863 218.109 447.439C220.11 429.774 226.359 418.172 234.064 411.043C248.908 414.759 265.704 417.536 281.149 419.465C288.409 438.409 294.538 474.826 286.154 552.996Z" fill="#41465A"/>
<path d="M407.569 398.459C353.577 356.523 347.788 310.503 346.748 298.887C345.236 281.928 354.015 268.503 376.996 282.543C396.789 294.647 417.062 338.159 429.532 360.36C454.35 337.834 489.773 317.668 493.554 315.138C502.433 309.224 504.334 314.968 499.676 321.095C494.304 328.16 457.213 390.934 438.94 401.787C432.19 405.828 419.522 407.75 407.569 398.459Z" fill="#FFB3A4"/>
<path d="M416.999 337.127C406.078 355.632 385.755 365.97 377.59 369.531C352.022 337.508 347.512 307.443 346.749 298.872C345.243 281.914 354.016 268.489 376.997 282.529C391.085 291.156 405.413 315.689 416.999 337.127Z" fill="#3A193F"/>
<path d="M507.989 299.275C507.409 301.161 504.886 303.839 506.957 304.115C508.031 304.263 515.934 304.115 516.464 307.104C516.67 308.511 516.39 309.946 515.673 311.174C516.071 311.895 516.258 312.715 516.21 313.537C516.163 314.36 515.883 315.152 515.404 315.823C516.196 317.54 516.175 319.617 515.333 320.409C515.333 320.409 516.528 324.79 514.683 325.503C508.957 327.715 499.075 326.599 495.76 325.652C492.876 324.825 490.536 322.034 490.536 315.802C490.536 313.251 493.978 307.069 496.269 304.624C497.209 303.62 500.694 299.593 501.832 298.519C503.458 296.941 504.693 295.006 505.437 292.866C505.437 292.866 509.608 294.025 507.989 299.275Z" fill="#FFB3A4"/>
<path d="M514.506 306.397C514.506 307.719 506.582 306.857 505.161 306.955C503.154 307.097 502.815 311.273 505.388 311.237C508.836 311.576 512.309 311.576 515.758 311.237" stroke="#E2564B" stroke-width="3" stroke-linecap="round" stroke-linejoin="round"/>
<path d="M515.319 315.844C506.738 316.318 504.532 315.844 504.532 315.844C503.281 315.908 502.334 311.386 505.366 311.259" stroke="#E2564B" stroke-width="3" stroke-linecap="round" stroke-linejoin="round"/>
<path d="M514.923 320.409C506.823 321.002 504.136 320.409 504.136 320.409C502.956 320.409 502.143 315.76 504.554 315.823" stroke="#E2564B" stroke-width="3" stroke-linecap="round" stroke-linejoin="round"/>
<path d="M506.342 320.67C506.342 320.67 503.571 320.006 503.366 321.758C502.991 324.874 504.447 325.426 511.742 325.15" stroke="#E2564B" stroke-width="3" stroke-linecap="round" stroke-linejoin="round"/>
<path d="M372.606 365.157C372.606 365.157 414.447 344.115 418.554 330.386C418.554 330.386 394.937 290.308 372.649 278.911C350.361 267.514 320.926 287.51 372.606 365.157Z" fill="#F1B104"/>
<path d="M259.809 438.147C221.439 428.453 213.451 423.309 231.766 397.476C246.378 376.879 248.838 298.83 268.524 273.654C287.837 248.966 315.384 254.124 324.814 255.283C324.814 255.283 340.853 254.753 371.101 277.039C409.668 305.457 387.698 338.603 382.368 349.612C379.117 356.332 365.643 378.285 332.01 416.3C327.062 421.861 331.89 433.3 332.717 435.547C333.544 437.794 301.889 448.782 259.809 438.147Z" fill="#F1B104"/>
<path d="M345.285 228.425C345.285 228.425 340.917 244.755 323.916 255.481C323.916 255.481 339.171 272.997 367.743 274.686C367.743 274.686 355.309 263.218 372.26 240.55L345.285 228.425Z" fill="#FFB3A4"/>
<path d="M345.872 228.687C345.434 229.683 345.087 230.51 344.847 231.125C344.847 231.125 341.906 241.102 345.151 249.086C347.667 255.29 357.514 264.687 362.823 264.32C362.901 258.865 365.545 249.559 372.281 240.55L345.872 228.687Z" fill="#3A193F"/>
<path d="M344.67 230.658C344.67 230.658 346.706 241.13 348.982 244.79C352.962 251.199 363.12 257.367 367.361 256.957C370.252 256.682 374.126 256.661 380.354 244.203C382.128 240.671 390.073 217.876 389.098 216.541C388.122 215.205 361.402 201.625 358.737 204.034C356.072 206.443 346.543 225.903 344.67 230.658Z" fill="#FFB3A4"/>
<path d="M347.731 223.889C347.731 223.889 353.047 226.553 355.507 216.774C357.67 208.083 360.13 207.15 369.277 214.654C376.72 220.745 392.795 227.797 398.719 220.377C404.155 213.58 399.546 208.111 394.117 208.62C387.5 209.242 385.705 194.488 371.369 191.888C359.918 189.768 355.493 198.77 355.493 198.77C355.493 198.77 349.837 194.651 345.526 200.925C340.097 208.832 344.592 230.821 344.592 230.821L347.731 223.889Z" fill="#41465A"/>
<path d="M367.043 211.057C374.395 218.477 385.995 227.676 393.113 224.603" stroke="#41465A" stroke-width="3" stroke-linecap="round" stroke-linejoin="round"/>
<path d="M355.641 199.208C355.641 199.208 354.694 194.778 350.311 195.555" stroke="#41465A" stroke-width="3" stroke-miterlimit="10"/>
<path d="M348.035 224.023C348.035 224.023 346.699 219.508 343.172 220.752C340.542 221.677 344.529 230.976 344.529 230.976L348.035 224.023Z" fill="#FFB3A4"/>
<path d="M281.149 419.465C301.296 421.988 319.18 423.076 327.599 422.998C329.782 427.212 331.736 431.54 333.452 435.964C335.82 445.8 340.28 460.32 344.861 475.173L354.856 537.006C345.285 543.21 323.202 547.167 301.472 547.605C297.818 540.299 293.513 531.636 289.201 522.168C288.617 530.001 287.827 538.379 286.833 547.301C264.361 545.93 245.671 540.122 246.724 528.223C252.931 458.469 240.086 420.914 235.718 411.474" fill="#2B303F"/>
<path d="M314.203 253.954C314.203 253.954 355.761 318.579 297.33 361.462C242.504 401.688 234.17 393.364 234.17 393.364L229.031 401.426C229.031 401.426 258.098 448.725 253.934 524.203C252.521 549.958 360.674 546.46 359.713 528.393C358.751 510.325 328.362 422.539 332.003 416.314C335.643 410.089 381.909 369.291 385.288 332.195C387.96 302.787 375.865 280.889 375.865 280.889L367.828 274.156C367.828 274.156 378.056 302.688 372.635 323.617C372.635 323.617 347.067 320.006 345.066 318.798C343.066 317.59 338.089 276.162 324.679 255.459C322.043 251.467 314.203 253.954 314.203 253.954Z" fill="#FFF4DE"/>
<path d="M398.627 473.971H432.366C434.331 473.971 436.215 474.752 437.605 476.14C438.994 477.529 439.775 479.412 439.775 481.376V484.132C439.775 486.096 438.994 487.98 437.605 489.368C436.215 490.757 434.331 491.537 432.366 491.537H398.627V473.971Z" fill="#FFE6AA" stroke="#F1B104" stroke-width="3" stroke-miterlimit="10"/>
<path d="M381.57 464.779C382.623 466.489 384.546 467.669 387.472 467.315C391.48 466.842 403.78 465.775 408.601 471.194C411.711 474.685 414.475 477.193 414.475 477.193C413.727 477.923 412.779 478.416 411.752 478.609C410.724 478.803 409.663 478.689 408.7 478.282C402.91 475.745 395.587 478.727 393.148 480.055C390.71 481.383 383.118 482.881 375.717 475.335C368.316 467.789 381.57 464.779 381.57 464.779Z" fill="#FFB3A4"/>
<path d="M307.431 416.378C329.727 442.521 373.398 473.978 377.682 476.904C381.082 479.228 388.179 474.706 383.817 468.354C379.187 461.62 348.784 407.248 331.048 388.262C331.381 364.733 333.325 295.862 319.823 273.612C308.916 255.636 282.514 267.542 276.859 283.596C269.323 305.026 268.086 347.075 296.531 400.43C297.959 403.108 303.02 411.502 307.431 416.378Z" fill="#FFB3A4"/>
<path d="M331.106 343.034C315.745 349.471 290.927 351.76 277.807 352.587C269.847 322.126 271.798 298.046 276.874 283.624C282.529 267.585 308.931 255.672 319.838 273.654C327.826 286.775 330.399 316.275 331.106 343.034Z" fill="#3A193F"/>
<path d="M269.005 345.323C269.005 345.323 310.443 348.093 331.918 338.702C331.918 338.702 336.93 258.688 298.602 261.253C252.549 264.327 269.005 345.323 269.005 345.323Z" fill="#F1B104"/>
<path d="M398.627 491.481C403.464 491.481 407.385 487.561 407.385 482.726C407.385 477.891 403.464 473.971 398.627 473.971C393.79 473.971 389.868 477.891 389.868 482.726C389.868 487.561 393.79 491.481 398.627 491.481Z" fill="white" stroke="#F1B104" stroke-width="3" stroke-miterlimit="10"/>
<path d="M396.478 480.55H389.041C388.05 480.55 387.246 481.353 387.246 482.344V483.023C387.246 484.014 388.05 484.818 389.041 484.818H396.478C397.469 484.818 398.273 484.014 398.273 483.023V482.344C398.273 481.353 397.469 480.55 396.478 480.55Z" fill="#FFE6AA" stroke="#F1B104" stroke-width="3" stroke-miterlimit="10"/>
<path d="M841.639 491.897H334.427C331.214 491.897 328.61 494.501 328.61 497.713V499.875C328.61 503.087 331.214 505.69 334.427 505.69H841.639C844.852 505.69 847.456 503.087 847.456 499.875V497.713C847.456 494.501 844.852 491.897 841.639 491.897Z" fill="white" stroke="#F1B104" stroke-width="3" stroke-miterlimit="10"/>
<path d="M830.944 505.683H817.64V760.365H830.944V505.683Z" fill="white" stroke="#F1B104" stroke-width="3" stroke-miterlimit="10"/>
<path d="M358.426 505.683H345.13V760.365H358.426V505.683Z" fill="white" stroke="#F1B104" stroke-width="3" stroke-miterlimit="10"/>
<path d="M345.13 505.683H358.426V511.371L345.13 509.951V505.683Z" fill="#F1B104"/>
<path d="M830.937 505.683V511.724L817.64 509.951V505.683H830.937Z" fill="#F1B104"/>
<path d="M369.397 220.604C369.397 220.604 366.69 218.484 362.024 220.604" stroke="#41465A" stroke-width="3" stroke-linecap="round" stroke-linejoin="round"/>
<path d="M366.821 227.494C367.022 226.348 366.468 225.294 365.583 225.139C364.699 224.984 363.819 225.787 363.618 226.933C363.417 228.078 363.972 229.132 364.856 229.287C365.741 229.442 366.62 228.639 366.821 227.494Z" fill="#242854"/>
<path d="M381.739 231.331C382.005 230.199 381.512 229.115 380.638 228.91C379.764 228.704 378.84 229.455 378.573 230.587C378.307 231.719 378.799 232.803 379.674 233.009C380.548 233.214 381.472 232.463 381.739 231.331Z" fill="#242854"/>
<path d="M375.307 226.758L375.893 237.399L372.295 238.706" stroke="#E2564B" stroke-width="3" stroke-linecap="round" stroke-linejoin="round"/>
<path d="M362.88 238.586C362.88 238.586 362.88 243.313 366.414 244.493" stroke="#41465A" stroke-width="3" stroke-linecap="round" stroke-linejoin="round"/>
<path d="M346.911 230.898C350.179 230.898 352.828 228.251 352.828 224.984C352.828 221.718 350.179 219.07 346.911 219.07C343.643 219.07 340.994 221.718 340.994 224.984C340.994 228.251 343.643 230.898 346.911 230.898Z" fill="#FFB3A4"/>
<path d="M560.163 359.448C560.508 358.527 560.169 357.549 559.405 357.262C558.641 356.976 557.742 357.49 557.396 358.411C557.051 359.331 557.39 360.31 558.154 360.597C558.918 360.883 559.817 360.369 560.163 359.448Z" fill="#242854"/>
<path d="M569.916 362.695C570.261 361.774 569.922 360.795 569.158 360.509C568.394 360.223 567.495 360.737 567.149 361.658C566.804 362.578 567.143 363.557 567.907 363.843C568.671 364.13 569.57 363.616 569.916 362.695Z" fill="#242854"/>
<path d="M563.932 358.932L559.266 363.935L561.182 367.595" stroke="#E2564B" stroke-width="3" stroke-linecap="round" stroke-linejoin="round"/>
<path d="M568.767 355.964C568.767 355.964 571.1 355.653 573.461 358.02" stroke="#41465A" stroke-width="3" stroke-linecap="round" stroke-linejoin="round"/>
<path d="M560.447 371.029C561.728 371.507 563.117 371.621 564.459 371.359C565.802 371.097 567.045 370.469 568.053 369.545" stroke="#41465A" stroke-width="3" stroke-linecap="round" stroke-linejoin="round"/>
<path d="M585.584 344.292C580.869 344.624 576.741 340.624 576.741 340.624C576.741 340.624 580.275 336.088 584.976 335.756C589.677 335.424 593.819 339.416 593.819 339.416C593.819 339.416 590.299 343.952 585.584 344.292Z" fill="#F1B104"/>
<path d="M568.59 335C570.852 339.148 576.444 340.462 576.444 340.462C576.444 340.462 578.366 335.049 576.104 330.902C573.842 326.754 568.251 325.44 568.251 325.44C568.251 325.44 566.328 330.845 568.59 335Z" fill="#F1B104"/>
<path d="M577.967 342.191C579.208 341.766 579.87 340.416 579.444 339.175C579.019 337.935 577.669 337.274 576.428 337.699C575.187 338.124 574.526 339.474 574.951 340.714C575.376 341.955 576.726 342.616 577.967 342.191Z" fill="#F1B104"/>
<path d="M576.352 341.409C576.352 341.409 587.711 350.467 586.651 363.263C587.436 363.342 588.227 363.342 589.012 363.263C589.012 363.263 592.794 352.156 582.65 343.119" fill="#F1B104"/>
<path d="M835.793 467.358C835.793 478.041 829.869 487.142 821.542 490.718H805.99C797.663 487.185 791.74 478.041 791.74 467.358C791.74 457.939 796.334 449.75 803.128 445.496C803.753 445.105 804.269 444.563 804.627 443.919C804.986 443.276 805.175 442.551 805.178 441.815C805.178 441.085 804.994 440.367 804.643 439.727C804.292 439.088 803.786 438.547 803.17 438.155L800.979 436.741C800.841 436.655 800.735 436.526 800.678 436.374C800.62 436.222 800.615 436.055 800.661 435.9C800.708 435.744 800.804 435.608 800.936 435.512C801.067 435.417 801.226 435.367 801.389 435.371H821.712C821.909 435.375 822.103 435.421 822.282 435.505C822.46 435.589 822.619 435.709 822.748 435.858C822.877 436.007 822.974 436.182 823.031 436.37C823.089 436.559 823.107 436.758 823.083 436.953L822.376 441.801C822.377 442.538 822.566 443.262 822.925 443.906C823.284 444.55 823.8 445.092 824.426 445.482C831.198 449.75 835.793 457.946 835.793 467.358Z" fill="white"/>
<path d="M832.796 467.478C832.796 478.395 826.766 487.707 818.29 491.346H802.456C793.973 487.714 787.951 478.395 787.951 467.478C787.951 457.861 792.63 449.488 799.544 445.143C800.187 444.748 800.72 444.195 801.091 443.538C801.462 442.88 801.659 442.139 801.664 441.384V441.384C801.665 440.639 801.478 439.907 801.121 439.254C800.764 438.6 800.248 438.048 799.621 437.646L797.395 436.233C797.252 436.145 797.143 436.013 797.082 435.857C797.022 435.702 797.015 435.53 797.061 435.37C797.108 435.209 797.206 435.069 797.34 434.969C797.474 434.87 797.638 434.817 797.805 434.819H818.495C818.7 434.817 818.902 434.859 819.088 434.943C819.275 435.026 819.441 435.149 819.575 435.303C819.709 435.457 819.809 435.638 819.867 435.834C819.924 436.029 819.939 436.235 819.909 436.437L819.202 441.384C819.202 442.135 819.393 442.874 819.756 443.531C820.119 444.189 820.644 444.743 821.28 445.143C828.116 449.488 832.796 457.868 832.796 467.478Z" stroke="#F1B104" stroke-width="3" stroke-miterlimit="10"/>
<path d="M825.345 448.683H829.021C832.186 448.684 835.221 449.943 837.459 452.181C839.696 454.418 840.953 457.453 840.953 460.617V465.832C840.959 467.036 840.726 468.229 840.269 469.343C839.812 470.458 839.139 471.471 838.289 472.324C837.439 473.178 836.429 473.855 835.316 474.317C834.204 474.779 833.011 475.017 831.806 475.017V475.017" stroke="#F1B104" stroke-width="3" stroke-miterlimit="10"/>
</svg>
